<?xml version="1.0" encoding="UTF-8"?>
<!DOCTYPE svg PUBLIC "-//W3C//DTD SVG 1.1//EN" "http://www.w3.org/Graphics/SVG/1.1/DTD/svg11.dtd">
<!-- Creator: CorelDRAW 2019 (64-Bit) -->
<svg xmlns="http://www.w3.org/2000/svg" xml:space="preserve" width="5in" height="5in" version="1.1" style="shape-rendering:geometricPrecision; text-rendering:geometricPrecision; image-rendering:optimizeQuality; fill-rule:evenodd; clip-rule:evenodd"
viewBox="0 0 5000 5000"
 xmlns:xlink="http://www.w3.org/1999/xlink"
 xmlns:xodm="http://www.corel.com/coreldraw/odm/2003">
 <defs>
  <style type="text/css">
   <![CDATA[
    .fil3 {fill:none}
    .fil0 {fill:#00471E}
    .fil1 {fill:#007A3D}
    .fil2 {fill:#FFFEF8;fill-rule:nonzero}
   ]]>
  </style>
 </defs>
 <g id="Layer_x0020_1">
  <metadata id="CorelCorpID_0Corel-Layer"/>
  <g id="_3078764952592">
   <path class="fil0" d="M2152.92 3679.35c-230.93,-2.8 -462.74,-14.62 -691.45,-39.62 -135.45,-14.81 -270.95,-34.45 -404.42,-62.06 -116.3,-24.06 -233.19,-54.43 -344.48,-96.18l-103.49 -38.82c-13.97,-5.24 -23.61,-16.07 -27.2,-30.56 -3.58,-14.49 -0.1,-28.57 9.82,-39.72l73.47 -82.57c144.77,-162.71 297.83,-317.47 443.72,-479.02 77.87,-86.24 153.33,-174.5 223.88,-266.86 29.45,-38.56 57.96,-77.72 85.46,-117.56 8.35,-12.09 10.15,-26.2 5.1,-40.01 -5.04,-13.8 -15.52,-23.43 -29.7,-27.29l-365.62 -99.5c-15.67,-4.26 -26.98,-15.75 -31,-31.48 -4.02,-15.73 0.39,-31.24 12.08,-42.5l96.26 -92.69c143.72,-138.39 285.59,-278.41 417.81,-427.98 37.93,-42.91 73.84,-88.06 107.68,-134.67 8.93,-12.3 10.91,-27 5.57,-41.22 -5.34,-14.23 -16.52,-23.99 -31.33,-27.37 -11.81,-2.69 -23.56,-5.52 -35.26,-8.47 -26.67,-6.72 -53.83,-14.05 -80.01,-22.55l-133.42 -43.31c-15.74,-5.11 -26.63,-17.54 -29.62,-33.82 -2.99,-16.28 2.77,-31.77 15.67,-42.14l109.31 -87.9c117.83,-94.74 225.32,-198.77 326.17,-311.3 89.83,-100.24 172.86,-205.51 256.54,-310.83 70.52,-88.77 136.44,-181.53 196.72,-277.56 18.37,-29.26 36.19,-58.85 53.52,-88.74 9.37,-16.17 18.58,-33.59 28.71,-49.22l60.7 -93.66c8.15,-12.58 20.9,-19.69 35.89,-20.02 14.99,-0.33 28.03,6.22 36.72,18.44l64.71 90.93c10.63,14.94 20.48,31.39 30.53,46.81 18.8,28.86 38.12,57.37 57.97,85.52 65.55,92.93 136.7,182.22 212.18,267.27 89.93,101.32 178.95,202.84 274.82,298.69 105.96,105.94 213.83,201.6 335.34,289.64l111.44 80.74c13.3,9.64 19.83,24.65 17.81,40.95 -2.02,16.3 -12.02,29.26 -27.28,35.36l-127.8 51.06c-26.82,10.72 -55.03,20.12 -82.58,28.68 -9.77,3.04 -19.6,5.98 -29.48,8.81 -14.61,4.2 -25.22,14.56 -29.77,29.06 -4.55,14.5 -1.75,29.07 7.84,40.85 36.51,44.85 75,88.13 115.37,129.08 71.86,72.89 146.09,143.43 221.87,212.24 73.33,66.59 147.96,131.72 223.03,196.34l102.33 88.08c12.35,10.64 17.62,25.97 14.39,41.95 -3.22,15.98 -14.02,28.08 -29.53,33.09l-128.47 41.54c-75.55,24.43 -151.24,48.44 -226.88,72.57 -4.86,1.55 -9.72,3.1 -14.58,4.65 -14.12,4.51 -24.23,14.73 -28.6,28.89 -4.36,14.16 -1.75,28.3 7.38,39.98 38.35,49.02 78.12,96.91 118.45,143.7 102.55,118.98 211.27,233.13 322.85,343.65 81.59,80.82 165.07,159.79 250.07,237.02 26.5,24.09 53.17,47.99 79.96,71.77 13.31,11.82 27.48,23.73 40.28,36.06l75.6 72.89c10.48,10.1 15.04,23.4 12.99,37.81 -2.06,14.41 -10.17,25.89 -23.05,32.66l-92.98 48.82c-65.87,34.59 -139.27,60.43 -210.4,81.87 -90.19,27.18 -182.7,48.6 -275.04,67.07 -231.06,46.2 -468.51,75.5 -703.14,96.26 -97,8.59 -194.22,15.65 -291.55,21.22 -11,0.63 -19.57,9.7 -19.57,20.72l0 199.09c0,24.18 -19.72,43.9 -43.9,43.9l-542.06 0c-24.18,0 -43.9,-19.72 -43.9,-43.9l0 -183.87c0,-11.34 -9.16,-20.61 -20.5,-20.75z"/>
   <path class="fil1" d="M2243.93 3857.36l488.84 0 0 -172.48c0,-48.37 37.76,-88.35 86.04,-91.11 96.56,-5.53 193.03,-12.53 289.37,-21.06 232.95,-20.61 466.11,-49.3 695.53,-95.17 90.32,-18.06 180.29,-38.85 268.51,-65.43 67.23,-20.26 135.69,-44.08 197.97,-76.78l60.35 -31.69 -49.07 -47.31c-12.25,-11.81 -25.42,-22.79 -38.15,-34.09 -26.99,-23.96 -53.86,-48.04 -80.57,-72.31 -85.76,-77.92 -169.95,-157.57 -252.27,-239.11 -112.99,-111.93 -222.79,-227.22 -326.64,-347.71 -41.26,-47.87 -81.63,-96.52 -120.57,-146.29 -23.34,-29.83 -30.39,-67.99 -19.24,-104.19 11.16,-36.22 38.43,-63.77 74.53,-75.3 4.87,-1.56 9.73,-3.11 14.6,-4.66 75.56,-24.11 151.15,-48.09 226.62,-72.49l83.38 -26.96 -66.42 -57.17c-75.54,-65.02 -150.64,-130.57 -224.43,-197.58 -76.74,-69.68 -151.91,-141.11 -224.69,-214.93 -42.09,-42.7 -81.99,-87.57 -119.84,-134.06 -24.53,-30.14 -32.07,-69.38 -20.44,-106.46 11.63,-37.09 40.21,-64.98 77.57,-75.72 9.37,-2.69 18.72,-5.49 28.03,-8.39 26.03,-8.08 52.02,-16.7 77.33,-26.82l82.95 -33.14 -72.33 -52.41c-123.28,-89.33 -236.24,-189.32 -343.82,-296.87 -96.74,-96.71 -186.95,-199.49 -277.71,-301.75 -77.27,-87.07 -149.96,-178.3 -217.06,-273.43 -20.35,-28.85 -40.17,-58.09 -59.44,-87.67 -9.61,-14.76 -18.69,-30.07 -28.89,-44.41l-42 -59.02 -39.39 60.79c-9.65,14.88 -17.98,30.86 -26.87,46.22 -17.74,30.61 -36,60.92 -54.81,90.88 -61.7,98.29 -129.04,193.07 -201.23,283.93 -84.45,106.3 -168.59,212.89 -259.23,314.04 -103.09,115.04 -214.07,222.36 -334.49,319.19l-70.95 57.05 86.6 28.11c24.85,8.07 50.14,14.86 75.46,21.24 11.21,2.83 22.45,5.53 33.72,8.1 37.91,8.65 68,34.92 81.67,71.32 13.65,36.34 8.28,76.04 -14.52,107.44 -35.1,48.34 -72.34,95.18 -111.91,139.94 -133.4,150.89 -276.73,292.44 -421.73,432.06l-62.48 60.16 320.37 87.19c36.25,9.87 64.52,35.83 77.41,71.12 12.87,35.22 8,73.42 -13.3,104.27 -28.17,40.8 -57.35,80.91 -87.45,120.31 -71.69,93.85 -148.45,183.68 -227.58,271.31 -145.77,161.42 -298.8,316.15 -443.37,478.64l-47.69 53.59 67.17 25.2c108.18,40.58 220.95,69.76 334,93.15 131.41,27.18 264.43,46.44 397.8,61.02 227.29,24.85 456.06,36.44 684.65,39.21 49.92,0.61 90.15,41.33 90.15,91.25l0 157.26z"/>
   <path class="fil2" d="M2112.3 1040c81.5,0 154.04,46.26 205.43,121.05 47.74,69.46 77.26,164.31 77.26,268.07 0,103.76 -29.53,198.61 -77.26,268.07 -51.39,74.79 -123.93,121.05 -205.43,121.05 -81.5,0 -154.04,-46.26 -205.43,-121.05 -47.73,-69.47 -77.26,-164.32 -77.26,-268.07 0,-103.76 29.52,-198.61 77.26,-268.07 51.39,-74.79 123.93,-121.05 205.43,-121.05zm125.15 176.09c-33.21,-48.33 -77.56,-78.23 -125.15,-78.23 -47.6,0 -91.94,29.9 -125.15,78.23 -36.87,53.65 -59.67,128.9 -59.67,213.02 0,84.12 22.81,159.37 59.67,213.03 33.21,48.33 77.56,78.23 125.15,78.23 47.6,0 91.94,-29.9 125.15,-78.23 36.87,-53.66 59.67,-128.91 59.67,-213.03 0,-84.12 -22.8,-159.37 -59.67,-213.02z"/>
   <path class="fil2" d="M2767.21 1023.94c81.5,0 154.04,46.26 205.43,121.05 47.73,69.47 77.26,164.32 77.26,268.08 0,103.76 -29.53,198.61 -77.26,268.07 -51.39,74.79 -123.93,121.05 -205.43,121.05 -81.5,0 -154.05,-46.26 -205.43,-121.05 -47.74,-69.46 -77.26,-164.31 -77.26,-268.07 0,-103.76 29.53,-198.61 77.26,-268.08 51.39,-74.78 123.93,-121.05 205.43,-121.05zm125.15 176.1c-33.21,-48.33 -77.56,-78.23 -125.15,-78.23 -47.6,0 -91.94,29.9 -125.15,78.23 -36.87,53.66 -59.67,128.91 -59.67,213.03 0,84.12 22.8,159.37 59.67,213.02 33.21,48.33 77.56,78.23 125.15,78.23 47.6,0 91.94,-29.9 125.15,-78.23 36.87,-53.65 59.67,-128.9 59.67,-213.02 0,-84.12 -22.81,-159.37 -59.67,-213.03z"/>
   <path class="fil2" d="M1699.88 2271.62c111.51,305.32 227.55,519.76 347.95,662.42 135.25,160.26 275.15,227.95 419.79,232.14 154.54,4.48 295.96,-56 427.44,-219.35 119.53,-148.49 230.74,-379.59 335.65,-719.41 -243.26,208.67 -492.36,321.57 -747.7,331.99 -257.36,10.5 -518.33,-83.17 -783.14,-287.79zm273.41 725.5c-149.03,-176.59 -290.35,-452.98 -423.28,-860.51 -5.79,-16.41 -2.61,-35.41 9.93,-49.18 18.16,-19.95 49.05,-21.41 69,-3.25 291.94,266.49 575.16,388.97 850.26,377.74 275.32,-11.24 546.27,-156.44 813.18,-425.31l0.04 0.04c11.96,-12 29.85,-17.42 47.36,-12.65 25.97,7.07 41.29,33.86 34.22,59.83 -123.07,448 -256.39,742.21 -402.85,924.17 -153.39,190.56 -321.16,261.02 -506.2,255.67 -172.31,-4.99 -336.53,-82.74 -491.66,-266.54z"/>
  </g>
  <circle class="fil3" cx="2500" cy="2500" r="2500"/>
 </g>
</svg>
