<?xml version="1.0" encoding="UTF-8"?>
<!DOCTYPE svg PUBLIC "-//W3C//DTD SVG 1.1//EN" "http://www.w3.org/Graphics/SVG/1.1/DTD/svg11.dtd">
<!-- Creator: CorelDRAW 2019 (64-Bit) -->
<svg xmlns="http://www.w3.org/2000/svg" xml:space="preserve" width="5in" height="5in" version="1.1" style="shape-rendering:geometricPrecision; text-rendering:geometricPrecision; image-rendering:optimizeQuality; fill-rule:evenodd; clip-rule:evenodd"
viewBox="0 0 5000 5000"
 xmlns:xlink="http://www.w3.org/1999/xlink"
 xmlns:xodm="http://www.corel.com/coreldraw/odm/2003">
 <defs>
  <style type="text/css">
   <![CDATA[
    .fil2 {fill:none}
    .fil3 {fill:#1E6C2E}
    .fil0 {fill:#FEFEFE}
    .fil1 {fill:#E71615;fill-rule:nonzero}
   ]]>
  </style>
 </defs>
 <g id="Layer_x0020_1">
  <metadata id="CorelCorpID_0Corel-Layer"/>
  <path class="fil0" d="M2663.31 634.56l357.64 954.09c25.07,66.86 84.22,109.84 155.56,113.02l1017.92 45.31c74.05,3.3 135.21,49.83 158.11,120.33 22.91,70.5 0.79,144.1 -57.18,190.3l-796.88 634.98c-55.84,44.5 -78.44,114.04 -59.42,182.86l271.46 982.09c19.75,71.45 -5.62,143.99 -65.59,187.56 -59.96,43.57 -136.8,45.29 -198.65,4.43l-850.15 -561.66c-59.57,-39.36 -132.69,-39.36 -192.27,0l-850.15 561.66c-61.85,40.86 -138.69,39.15 -198.65,-4.43 -59.96,-43.57 -85.33,-116.11 -65.59,-187.56l271.46 -982.09c19.02,-68.82 -3.57,-138.36 -59.41,-182.86l-796.89 -634.98c-57.97,-46.2 -80.09,-119.8 -57.18,-190.3 22.91,-70.5 84.06,-117.04 158.11,-120.33l1017.92 -45.31c71.33,-3.18 130.49,-46.15 155.55,-113.02l357.65 -954.09c26.02,-69.41 89.18,-113.19 163.31,-113.19 74.13,0 137.29,43.78 163.31,113.19z"/>
  <path class="fil1" d="M2759.05 598.9l357.65 954.09c5.19,13.85 13.83,25.17 24.78,33.12 11,8 24.53,12.74 39.44,13.4l1017.92 45.31c58.49,2.61 112.15,22.49 155.93,55.8 43.7,33.26 77.1,79.56 95.13,135.04 18.06,55.6 18.3,112.68 2.54,165.15 -15.85,52.76 -47.59,100.43 -93.37,136.9l-796.88 634.98c-11.81,9.42 -20.01,21.13 -24.13,33.84 -4.16,12.81 -4.44,27.13 -0.43,41.67l271.46 982.09c15.55,56.26 13.22,113.31 -4.9,165.13 -18.22,52.12 -51.98,98.33 -99.14,132.6 -46.95,34.11 -101.33,51.87 -156.7,53.1 -54.94,1.22 -109.9,-14.16 -158.52,-46.28l-850.15 -561.66c-12.41,-8.19 -26.09,-12.29 -39.65,-12.29 -13.57,0 -27.25,4.1 -39.65,12.29l-850.15 561.66c-48.62,32.12 -103.57,47.5 -158.52,46.28 -55.38,-1.24 -109.75,-18.99 -156.7,-53.1 -47.16,-34.27 -80.92,-80.48 -99.14,-132.6 -18.12,-51.82 -20.45,-108.87 -4.9,-165.13l271.46 -982.09c4.02,-14.53 3.73,-28.86 -0.43,-41.67 -4.13,-12.7 -12.31,-24.42 -24.13,-33.83l-796.89 -634.98c-45.78,-36.48 -77.52,-84.15 -93.37,-136.9 -15.76,-52.47 -15.53,-109.56 2.54,-165.15 18.03,-55.48 51.42,-101.78 95.13,-135.04 43.77,-33.31 97.43,-53.19 155.93,-55.8l1017.91 -45.31c14.92,-0.66 28.44,-5.4 39.45,-13.4 10.95,-7.95 19.58,-19.27 24.78,-33.12l357.64 -954.09c20.56,-54.85 56.06,-99.76 101.27,-131.09 45.38,-31.45 99.72,-49 157.78,-49 58.06,0 112.41,17.55 157.78,49 45.21,31.33 80.71,76.24 101.27,131.09zm166.17 1025.4l-357.64 -954.09c-5.45,-14.55 -14.56,-26.25 -25.96,-34.15 -11.24,-7.79 -25.55,-12.14 -41.61,-12.14 -16.06,0 -30.37,4.35 -41.61,12.14 -11.41,7.91 -20.5,19.6 -25.96,34.15l-357.64 954.09c-19.87,53.01 -53.35,96.62 -96.08,127.66 -42.67,31 -94.39,49.34 -150.81,51.85l-1017.92 45.31c-15.56,0.69 -29.51,5.73 -40.55,14.14 -11.11,8.46 -19.75,20.69 -24.63,35.7 -4.84,14.89 -5,29.87 -0.94,43.37 3.97,13.21 12.29,25.44 24.48,35.16l796.88 634.98c44.02,35.08 75.06,80.39 91.43,130.78 16.33,50.29 17.84,105.15 2.83,159.44l-271.46 982.09c-4.2,15.18 -3.72,30.14 0.89,43.35 4.51,12.89 13.43,24.75 26.24,34.05 13.01,9.45 27.04,14.35 40.53,14.65 13.93,0.31 28.32,-3.89 41.55,-12.63l850.15 -561.66c47.17,-31.16 99.84,-46.75 152.62,-46.75 52.78,0 105.44,15.59 152.62,46.75l850.15 561.66c13.22,8.74 27.62,12.94 41.55,12.63 13.49,-0.3 27.52,-5.2 40.53,-14.65 12.8,-9.3 21.72,-21.16 26.24,-34.05 4.61,-13.2 5.09,-28.16 0.89,-43.35l-271.46 -982.09c-15,-54.29 -13.5,-109.15 2.83,-159.44 16.37,-50.39 47.42,-95.7 91.44,-130.78l796.88 -634.98c12.19,-9.71 20.5,-21.94 24.47,-35.16 4.06,-13.5 3.9,-28.48 -0.94,-43.37 -4.88,-15.01 -13.52,-27.24 -24.62,-35.7 -11.05,-8.41 -25,-13.44 -40.55,-14.14l-1017.92 -45.31c-56.41,-2.51 -108.14,-20.85 -150.81,-51.85 -42.72,-31.04 -76.2,-74.65 -96.08,-127.66z"/>
  <circle class="fil2" cx="2500" cy="2500" r="2500"/>
  <path class="fil3" d="M2607.59 1262.82l235.63 628.58c16.51,44.05 55.48,72.37 102.48,74.46l670.63 29.85c48.79,2.17 89.08,32.83 104.17,79.28 15.09,46.44 0.52,94.93 -37.67,125.37l-525.01 418.34c-36.79,29.32 -51.68,75.13 -39.15,120.48l178.85 647.03c13.01,47.07 -3.7,94.87 -43.21,123.57 -39.51,28.7 -90.13,29.83 -130.88,2.91l-560.1 -370.04c-39.25,-25.93 -87.42,-25.93 -126.67,0l-560.1 370.04c-40.75,26.92 -91.37,25.79 -130.87,-2.91 -39.51,-28.7 -56.22,-76.5 -43.21,-123.57l178.85 -647.03c12.53,-45.34 -2.35,-91.16 -39.15,-120.48l-525.01 -418.34c-38.19,-30.44 -52.77,-78.93 -37.67,-125.37 15.09,-46.45 55.38,-77.11 104.17,-79.28l670.63 -29.85c47,-2.09 85.97,-30.41 102.48,-74.46l235.63 -628.58c17.14,-45.73 58.76,-74.57 107.59,-74.57 48.84,0 90.45,28.84 107.59,74.57z"/>
  <path class="fil0" d="M2542.75 1954.13l93.63 249.78c6.56,17.5 22.05,28.76 40.72,29.59l266.49 11.86c19.39,0.86 35.39,13.05 41.39,31.5 6,18.46 0.2,37.72 -14.97,49.82l-208.62 166.23c-14.62,11.65 -20.54,29.85 -15.56,47.87l71.07 257.11c5.17,18.7 -1.47,37.7 -17.17,49.1 -15.7,11.41 -35.81,11.86 -52.01,1.16l-222.56 -147.04c-15.6,-10.31 -34.74,-10.31 -50.34,0l-222.56 147.04c-16.19,10.7 -36.31,10.25 -52.01,-1.16 -15.7,-11.41 -22.34,-30.4 -17.17,-49.1l71.07 -257.11c4.98,-18.02 -0.93,-36.22 -15.56,-47.87l-208.62 -166.23c-15.18,-12.09 -20.97,-31.36 -14.97,-49.82 6,-18.46 22.01,-30.64 41.39,-31.5l266.49 -11.86c18.67,-0.83 34.16,-12.08 40.72,-29.59l93.63 -249.78c6.81,-18.17 23.35,-29.63 42.76,-29.63 19.41,0 35.94,11.46 42.75,29.63z"/>
 </g>
</svg>
