<?xml version="1.0" encoding="UTF-8"?>
<!DOCTYPE svg PUBLIC "-//W3C//DTD SVG 1.1//EN" "http://www.w3.org/Graphics/SVG/1.1/DTD/svg11.dtd">
<!-- Creator: CorelDRAW 2019 (64-Bit) -->
<svg xmlns="http://www.w3.org/2000/svg" xml:space="preserve" width="127mm" height="127mm" version="1.1" style="shape-rendering:geometricPrecision; text-rendering:geometricPrecision; image-rendering:optimizeQuality; fill-rule:evenodd; clip-rule:evenodd"
viewBox="0 0 127 127"
 xmlns:xlink="http://www.w3.org/1999/xlink"
 xmlns:xodm="http://www.corel.com/coreldraw/odm/2003">
 <defs>
  <style type="text/css">
   <![CDATA[
    .fil2 {fill:#FEFEFE}
    .fil0 {fill:#00471E}
    .fil1 {fill:#007A3D}
   ]]>
  </style>
 </defs>
 <g id="Layer_x0020_1">
  <metadata id="CorelCorpID_0Corel-Layer"/>
  <path class="fil0" d="M54.3136 115.0198c-6.1117,-0.0742 -12.2465,-0.3869 -18.2992,-1.0486 -3.5847,-0.3919 -7.1707,-0.9119 -10.7029,-1.6425 -3.0779,-0.6366 -6.1713,-1.4404 -9.1166,-2.5452l-2.7388 -1.0274c-0.3698,-0.1387 -0.625,-0.4254 -0.7198,-0.8088 -0.0948,-0.3834 -0.0026,-0.7561 0.2599,-1.0512l1.9444 -2.1853c3.8314,-4.3061 7.8821,-8.4017 11.743,-12.6773 2.0609,-2.2823 4.0579,-4.618 5.9251,-7.0624 0.7794,-1.0203 1.5338,-2.0569 2.2617,-3.1112 0.2209,-0.3201 0.2686,-0.6936 0.1351,-1.0589 -0.1335,-0.3652 -0.4109,-0.62 -0.7861,-0.7221l-9.6761 -2.6333c-0.4145,-0.1129 -0.714,-0.4169 -0.8204,-0.8331 -0.1065,-0.4163 0.0102,-0.8268 0.3196,-1.1248l2.5475 -2.453c3.8035,-3.6625 7.5581,-7.3682 11.0574,-11.3264 1.0039,-1.1355 1.9542,-2.3306 2.8498,-3.564 0.2363,-0.3254 0.2889,-0.7145 0.1475,-1.091 -0.1414,-0.3765 -0.4372,-0.6348 -0.8293,-0.7242 -0.3125,-0.0713 -0.6236,-0.1462 -0.9331,-0.2241 -0.7059,-0.1778 -1.4246,-0.3719 -2.1176,-0.5969l-3.5309 -1.1461c-0.4166,-0.1353 -0.7048,-0.4643 -0.7839,-0.8951 -0.0792,-0.4308 0.0732,-0.8408 0.4146,-1.1153l2.893 -2.3263c3.1183,-2.5074 5.963,-5.2603 8.632,-8.2386 2.3774,-2.6529 4.5748,-5.4388 6.7892,-8.2262 1.8665,-2.3494 3.6108,-4.8042 5.2063,-7.3457 0.4862,-0.7745 0.9579,-1.5574 1.4163,-2.3486 0.248,-0.4279 0.4918,-0.8889 0.7598,-1.3025l1.6064 -2.4787c0.2157,-0.3329 0.5529,-0.521 0.9496,-0.5296 0.3967,-0.0087 0.7418,0.1646 0.9718,0.4879l1.7126 2.4065c0.2814,0.3955 0.5421,0.8308 0.8079,1.2388 0.4975,0.7639 1.0088,1.5182 1.5343,2.2632 1.7347,2.4594 3.6177,4.8225 5.6153,7.0732 2.3799,2.6816 4.7358,5.3682 7.2732,7.9049 2.8043,2.8036 5.659,5.3354 8.8748,7.6653l2.9494 2.137c0.352,0.2551 0.5248,0.6524 0.4713,1.0838 -0.0536,0.4314 -0.3182,0.7745 -0.7219,0.9358l-3.3822 1.3514c-0.7098,0.2836 -1.4563,0.5325 -2.1854,0.759 -0.2586,0.0803 -0.5187,0.1582 -0.7801,0.2333 -0.3865,0.111 -0.6674,0.3852 -0.7878,0.7689 -0.1203,0.3837 -0.0463,0.7693 0.2076,1.0811 0.9661,1.1868 1.9848,2.3323 3.0532,3.416 1.9018,1.9292 3.8663,3.7959 5.8718,5.6168 1.9408,1.7622 3.9158,3.4861 5.9026,5.1962l2.7081 2.3311c0.327,0.2814 0.4662,0.6872 0.3809,1.1102 -0.0853,0.4229 -0.3709,0.743 -0.7814,0.8757l-3.4 1.0992c-1.9994,0.6464 -4.0024,1.2819 -6.0043,1.9206 -0.1286,0.041 -0.2572,0.0821 -0.3858,0.1231 -0.3737,0.1194 -0.6414,0.3899 -0.7569,0.7647 -0.1154,0.3748 -0.0464,0.7491 0.1953,1.058 1.0151,1.2972 2.0674,2.5646 3.1349,3.8031 2.714,3.1488 5.5912,6.1696 8.5442,9.0947 2.1594,2.139 4.3686,4.2288 6.6181,6.2727 0.7015,0.6375 1.4072,1.2701 2.1161,1.8993 0.3524,0.3128 0.7274,0.628 1.066,0.9544l2.0008 1.9291c0.2772,0.2673 0.3981,0.6193 0.3437,1.0006 -0.0545,0.3812 -0.269,0.6853 -0.61,0.8643l-2.4607 1.2921c-1.7434,0.9154 -3.6859,1.5993 -5.5682,2.1665 -2.3869,0.7194 -4.8351,1.2863 -7.2788,1.7749 -6.1151,1.2227 -12.3992,1.9982 -18.6086,2.5476 -2.5671,0.2272 -5.1401,0.414 -7.7158,0.5615 -0.291,0.0166 -0.5178,0.2568 -0.5178,0.5483l0 5.2687c0,0.6399 -0.5219,1.1618 -1.1618,1.1618l-14.3457 0c-0.6398,0 -1.1617,-0.5219 -1.1617,-1.1618l0 -4.866c0,-0.3001 -0.2424,-0.5455 -0.5425,-0.5491z"/>
  <path class="fil1" d="M56.7221 119.7307l12.9372 0 0 -4.5646c0,-1.28 0.9992,-2.338 2.2771,-2.4112 2.5553,-0.1462 5.1085,-0.3316 7.658,-0.5572 6.165,-0.5455 12.3355,-1.3046 18.4073,-2.5186 2.3903,-0.478 4.7713,-1.0281 7.1061,-1.7317 1.7794,-0.5363 3.591,-1.1666 5.2392,-2.0321l1.5971 -0.8386 -1.2986 -1.2521c-0.3241,-0.3126 -0.6726,-0.6032 -1.0095,-0.9021 -0.7143,-0.634 -1.4255,-1.2715 -2.1323,-1.9138 -2.2695,-2.0622 -4.4977,-4.1701 -6.6764,-6.3281 -2.9903,-2.9621 -5.896,-6.0134 -8.6444,-9.2022 -1.0919,-1.2668 -2.1603,-2.5543 -3.191,-3.8714 -0.6178,-0.7895 -0.8041,-1.7993 -0.5091,-2.7573 0.2953,-0.9585 1.0171,-1.6877 1.9725,-1.9928 0.1288,-0.0411 0.2575,-0.0822 0.3863,-0.1233 1.9997,-0.638 4.0003,-1.2728 5.9975,-1.9184l2.2068 -0.7135 -1.7577 -1.5129c-1.9993,-1.7209 -3.9867,-3.4557 -5.9397,-5.229 -2.0309,-1.8441 -4.0202,-3.7346 -5.9462,-5.6882 -1.114,-1.13 -2.1698,-2.3176 -3.1715,-3.548 -0.6493,-0.7976 -0.8487,-1.8362 -0.5409,-2.8175 0.3078,-0.9817 1.0641,-1.7199 2.0529,-2.0041 0.2481,-0.0712 0.4953,-0.1452 0.7418,-0.2218 0.6889,-0.214 1.3766,-0.4421 2.0466,-0.7098l2.1953 -0.8771 -1.9144 -1.387c-3.2626,-2.364 -6.252,-5.0103 -9.0992,-7.8568 -2.5602,-2.5595 -4.9477,-5.2796 -7.3495,-7.9859 -2.0451,-2.3042 -3.9687,-4.7185 -5.7446,-7.2363 -0.5386,-0.7636 -1.063,-1.5372 -1.573,-2.3202 -0.2544,-0.3907 -0.4945,-0.7958 -0.7647,-1.1754l-1.1115 -1.5619 -1.0425 1.6088c-0.2553,0.3938 -0.4757,0.8167 -0.7112,1.2231 -0.4694,0.8101 -0.9527,1.6123 -1.4505,2.4053 -1.6331,2.6012 -3.4152,5.1095 -5.3256,7.5142 -2.235,2.8132 -4.4617,5.634 -6.8606,8.3109 -2.7284,3.0444 -5.6654,5.8847 -8.8524,8.4474l-1.8777 1.5099 2.2918 0.7439c0.6575,0.2135 1.3268,0.3934 1.9971,0.5622 0.2966,0.0747 0.5941,0.1463 0.8923,0.2143 1.0033,0.2288 1.7994,0.9241 2.1613,1.8874 0.3611,0.9617 0.2191,2.0122 -0.3844,2.8435 -0.929,1.2794 -1.9145,2.5189 -2.9618,3.7035 -3.5303,3.9932 -7.3237,7.7394 -11.1611,11.4346l-1.6534 1.5922 8.4785 2.3073c0.9593,0.2611 1.7074,0.9484 2.0487,1.8822 0.3406,0.932 0.2116,1.9429 -0.3522,2.7595 -0.7455,1.0798 -1.5178,2.1411 -2.3143,3.1839 -1.8974,2.4837 -3.9289,4.8611 -6.023,7.1802 -3.8577,4.2719 -7.9077,8.3667 -11.7339,12.667l-1.262 1.4185 1.7776 0.6667c2.863,1.074 5.8474,1.8463 8.8392,2.4651 3.4778,0.7194 6.9981,1.229 10.5277,1.6149 6.0151,0.6575 12.0697,0.9642 18.119,1.0376 1.3211,0.016 2.3859,1.0937 2.3859,2.415l0 4.1618z"/>
  <path class="fil2" d="M53.2385 45.4863c0.5403,0 0.9782,0.4379 0.9782,0.9782 0,0.5402 -0.4379,0.9781 -0.9782,0.9781 -0.5403,0 -0.9781,-0.4379 -0.9781,-0.9781 0,-0.5403 0.4378,-0.9782 0.9781,-0.9782z"/>
  <path class="fil2" d="M49.8636 46.6457c0.4347,-0.3207 1.0471,-0.2284 1.3679,0.2063 0.3208,0.4347 0.2284,1.0471 -0.2062,1.3679 -0.4347,0.3208 -1.0471,0.2285 -1.3679,-0.2062 -0.3208,-0.4347 -0.2284,-1.0472 0.2062,-1.368z"/>
  <path class="fil2" d="M47.6437 49.2061c0.2692,-0.4683 0.8672,-0.6297 1.3356,-0.3605 0.4683,0.2693 0.6297,0.8673 0.3604,1.3356 -0.2693,0.4684 -0.8672,0.6298 -1.3356,0.3605 -0.4683,-0.2694 -0.6297,-0.8672 -0.3604,-1.3356z"/>
  <path class="fil2" d="M46.4485 52.2568c0.1266,-0.5252 0.655,-0.8483 1.1802,-0.7217 0.5252,0.1267 0.8483,0.655 0.7217,1.1802 -0.1266,0.5252 -0.655,0.8483 -1.1802,0.7217 -0.5252,-0.1266 -0.8483,-0.655 -0.7217,-1.1802z"/>
  <path class="fil2" d="M46.0739 55.4674c0,-0.5401 0.438,-0.9781 0.9782,-0.9781 0.5403,0 0.9782,0.438 0.9782,0.9781 0,0.5403 -0.4379,0.9783 -0.9782,0.9783 -0.5402,0 -0.9782,-0.438 -0.9782,-0.9783z"/>
  <path class="fil2" d="M46.4485 58.6782c-0.1266,-0.5252 0.1965,-1.0536 0.7217,-1.1802 0.5252,-0.1266 1.0536,0.1965 1.1802,0.7217 0.1266,0.5252 -0.1965,1.0535 -0.7217,1.1801 -0.5252,0.1266 -1.0536,-0.1964 -1.1802,-0.7216z"/>
  <path class="fil2" d="M47.6437 61.729c-0.2693,-0.4685 -0.1079,-1.0664 0.3604,-1.3356 0.4684,-0.2694 1.0663,-0.108 1.3356,0.3603 0.2693,0.4685 0.1079,1.0664 -0.3604,1.3356 -0.4684,0.2694 -1.0664,0.108 -1.3356,-0.3603z"/>
  <path class="fil2" d="M49.8637 64.2892c-0.4347,-0.3209 -0.5271,-0.9332 -0.2062,-1.3679 0.3208,-0.4347 0.9331,-0.527 1.3678,-0.2062 0.4347,0.3208 0.5271,0.9331 0.2062,1.3678 -0.3208,0.4347 -0.9331,0.5271 -1.3678,0.2063z"/>
  <path class="fil2" d="M53.2386 65.4487c-0.5403,0 -0.9781,-0.4379 -0.9781,-0.9782 -0.0001,-0.5403 0.4378,-0.9781 0.9781,-0.9781 0.5402,0 0.9782,0.4378 0.9782,0.9781 0,0.5402 -0.4379,0.9782 -0.9782,0.9782z"/>
  <path class="fil2" d="M56.6136 64.2892c-0.4348,0.3208 -1.0472,0.2284 -1.368,-0.2063 -0.3208,-0.4347 -0.2284,-1.047 0.2062,-1.3678 0.4347,-0.3208 1.0472,-0.2285 1.368,0.2062 0.3207,0.4347 0.2284,1.047 -0.2062,1.3679z"/>
  <path class="fil2" d="M58.8335 61.7289c-0.2694,0.4683 -0.8673,0.6297 -1.3356,0.3604 -0.4684,-0.2693 -0.6298,-0.8672 -0.3605,-1.3356 0.2693,-0.4683 0.8672,-0.6297 1.3356,-0.3604 0.4683,0.2692 0.6297,0.8672 0.3605,1.3356z"/>
  <path class="fil2" d="M60.0286 58.6782c-0.1266,0.5252 -0.655,0.8482 -1.1802,0.7216 -0.5252,-0.1266 -0.8483,-0.6549 -0.7216,-1.1801 0.1266,-0.5252 0.6549,-0.8483 1.1801,-0.7217 0.5252,0.1266 0.8483,0.655 0.7217,1.1802z"/>
  <path class="fil2" d="M60.4032 55.4674c0,0.5403 -0.438,0.9783 -0.9782,0.9783 -0.5402,0 -0.9782,-0.438 -0.9782,-0.9783 0,-0.5401 0.438,-0.9781 0.9782,-0.9781 0.5402,0 0.9782,0.438 0.9782,0.9781z"/>
  <path class="fil2" d="M60.0286 52.2568c0.1266,0.5252 -0.1965,1.0536 -0.7217,1.1802 -0.5252,0.1266 -1.0535,-0.1965 -1.1801,-0.7217 -0.1267,-0.5252 0.1964,-1.0535 0.7216,-1.1802 0.5252,-0.1266 1.0536,0.1965 1.1802,0.7217z"/>
  <path class="fil2" d="M58.8335 49.206c0.2692,0.4683 0.1078,1.0663 -0.3605,1.3356 -0.4684,0.2692 -1.0663,0.1079 -1.3356,-0.3605 -0.2693,-0.4683 -0.1079,-1.0662 0.3605,-1.3356 0.4683,-0.2692 1.0662,-0.1078 1.3356,0.3605z"/>
  <path class="fil2" d="M56.6135 46.6457c0.4347,0.3208 0.5269,0.9333 0.2062,1.368 -0.3208,0.4346 -0.9332,0.527 -1.3679,0.2062 -0.4347,-0.3208 -0.5271,-0.9332 -0.2063,-1.3678 0.3208,-0.4348 0.9332,-0.5271 1.368,-0.2064z"/>
  <path class="fil2" d="M70.5708 45.0615c0.5402,0 0.9781,0.438 0.9781,0.9783 0,0.5402 -0.4379,0.9781 -0.9781,0.9781 -0.5403,0 -0.9782,-0.4379 -0.9782,-0.9781 0,-0.5403 0.4379,-0.9783 0.9782,-0.9783z"/>
  <path class="fil2" d="M67.1958 46.2211c0.4347,-0.3208 1.0471,-0.2284 1.368,0.2062 0.3207,0.4347 0.2284,1.0471 -0.2064,1.3679 -0.4346,0.3208 -1.047,0.2284 -1.3678,-0.2062 -0.3208,-0.4347 -0.2285,-1.0471 0.2062,-1.3679z"/>
  <path class="fil2" d="M64.9759 48.7814c0.2693,-0.4683 0.8673,-0.6297 1.3356,-0.3604 0.4683,0.2692 0.6297,0.8672 0.3605,1.3356 -0.2694,0.4683 -0.8673,0.6297 -1.3356,0.3604 -0.4684,-0.2693 -0.6297,-0.8672 -0.3605,-1.3356z"/>
  <path class="fil2" d="M63.7807 51.8321c0.1266,-0.5252 0.6549,-0.8482 1.1802,-0.7216 0.5252,0.1266 0.8483,0.6549 0.7217,1.1801 -0.1266,0.5252 -0.6549,0.8483 -1.1803,0.7217 -0.5252,-0.1266 -0.8483,-0.6549 -0.7216,-1.1802z"/>
  <path class="fil2" d="M63.4062 55.0428c0,-0.5402 0.4379,-0.9782 0.9781,-0.9782 0.5403,0 0.9783,0.438 0.9783,0.9782 0,0.5403 -0.438,0.9781 -0.9783,0.9781 -0.5402,0 -0.9781,-0.4378 -0.9781,-0.9781z"/>
  <path class="fil2" d="M63.7807 58.2535c-0.1267,-0.5252 0.1964,-1.0536 0.7216,-1.1802 0.5252,-0.1266 1.0537,0.1965 1.1803,0.7217 0.1266,0.5252 -0.1965,1.0535 -0.7217,1.1802 -0.5252,0.1266 -1.0536,-0.1965 -1.1802,-0.7217z"/>
  <path class="fil2" d="M64.9759 61.3042c-0.2692,-0.4683 -0.1079,-1.0662 0.3605,-1.3355 0.4683,-0.2693 1.0662,-0.108 1.3356,0.3604 0.2692,0.4684 0.1078,1.0663 -0.3605,1.3356 -0.4683,0.2692 -1.0663,0.1079 -1.3356,-0.3605z"/>
  <path class="fil2" d="M67.1959 63.8645c-0.4347,-0.3208 -0.5271,-0.9332 -0.2063,-1.3679 0.3209,-0.4347 0.9332,-0.5271 1.368,-0.2062 0.4347,0.3208 0.5269,0.9331 0.2062,1.3678 -0.3208,0.4348 -0.9332,0.5271 -1.3679,0.2063z"/>
  <path class="fil2" d="M70.5709 65.024c-0.5403,0 -0.9783,-0.4379 -0.9783,-0.9782 0,-0.5402 0.438,-0.9781 0.9783,-0.9781 0.5401,-0.0001 0.9781,0.4379 0.9781,0.9781 0,0.5402 -0.438,0.9782 -0.9781,0.9782z"/>
  <path class="fil2" d="M73.9457 63.8645c-0.4346,0.3208 -1.0471,0.2285 -1.3679,-0.2063 -0.3207,-0.4347 -0.2285,-1.047 0.2063,-1.3678 0.4347,-0.3209 1.0471,-0.2285 1.3679,0.2062 0.3208,0.4347 0.2284,1.0471 -0.2063,1.3679z"/>
  <path class="fil2" d="M76.1657 61.3042c-0.2694,0.4683 -0.8672,0.6297 -1.3356,0.3605 -0.4683,-0.2694 -0.6297,-0.8673 -0.3605,-1.3356 0.2693,-0.4685 0.8673,-0.6297 1.3356,-0.3605 0.4684,0.2693 0.6297,0.8673 0.3605,1.3356z"/>
  <path class="fil2" d="M77.3608 58.2535c-0.1266,0.5252 -0.6549,0.8483 -1.1801,0.7217 -0.5252,-0.1267 -0.8483,-0.655 -0.7217,-1.1802 0.1266,-0.5252 0.655,-0.8483 1.1802,-0.7217 0.5252,0.1266 0.8483,0.655 0.7216,1.1802z"/>
  <path class="fil2" d="M77.7355 55.0428c0,0.5403 -0.438,0.9781 -0.9783,0.9781 -0.5402,0 -0.9782,-0.4378 -0.9782,-0.9781 0,-0.5402 0.438,-0.9782 0.9782,-0.9782 0.5403,0 0.9783,0.438 0.9783,0.9782z"/>
  <path class="fil2" d="M77.3608 51.8321c0.1267,0.5253 -0.1964,1.0536 -0.7216,1.1802 -0.5252,0.1266 -1.0536,-0.1965 -1.1802,-0.7217 -0.1266,-0.5252 0.1965,-1.0535 0.7217,-1.1801 0.5252,-0.1267 1.0535,0.1964 1.1801,0.7216z"/>
  <path class="fil2" d="M76.1657 48.7813c0.2692,0.4684 0.1079,1.0664 -0.3605,1.3356 -0.4683,0.2693 -1.0663,0.1079 -1.3356,-0.3604 -0.2692,-0.4684 -0.1078,-1.0663 0.3605,-1.3356 0.4684,-0.2693 1.0662,-0.1079 1.3356,0.3604z"/>
  <path class="fil2" d="M73.9457 46.2211c0.4347,0.3208 0.527,0.9332 0.2062,1.3678 -0.3208,0.4347 -0.9331,0.5271 -1.3678,0.2063 -0.4348,-0.3208 -0.5271,-0.9332 -0.2064,-1.3679 0.3208,-0.4346 0.9333,-0.527 1.368,-0.2062z"/>
  <path class="fil2" d="M46.1984 77.839c0.4156,0.2875 0.5195,0.8573 0.232,1.273 -0.2875,0.4156 -0.8574,0.5194 -1.2729,0.232 -0.4157,-0.2876 -0.5195,-0.8574 -0.232,-1.2731 0.2875,-0.4156 0.8574,-0.5194 1.2729,-0.2319z"/>
  <path class="fil2" d="M48.6124 79.336c0.4389,0.2504 0.5917,0.8091 0.3414,1.248 -0.2504,0.4391 -0.8092,0.5919 -1.2481,0.3414 -0.4389,-0.2502 -0.5918,-0.8091 -0.3414,-1.248 0.2504,-0.439 0.8091,-0.5918 1.2481,-0.3414z"/>
  <path class="fil2" d="M51.7126 80.9048c0.4624,0.204 0.6718,0.7442 0.4678,1.2065 -0.2041,0.4623 -0.7442,0.6717 -1.2065,0.4677 -0.4624,-0.204 -0.6717,-0.7442 -0.4677,-1.2065 0.204,-0.4623 0.7442,-0.6717 1.2064,-0.4677z"/>
  <path class="fil2" d="M54.9529 82.1138c0.4834,0.1472 0.7559,0.6584 0.6087,1.1418 -0.1473,0.4834 -0.6584,0.7559 -1.1419,0.6087 -0.4834,-0.1472 -0.7559,-0.6584 -0.6086,-1.1418 0.1472,-0.4835 0.6584,-0.756 1.1418,-0.6087z"/>
  <path class="fil2" d="M58.3063 82.8952c0.4989,0.0804 0.8381,0.5499 0.7577,1.0488 -0.0804,0.4989 -0.55,0.8382 -1.0489,0.7578 -0.4989,-0.0804 -0.8381,-0.5499 -0.7577,-1.0488 0.0803,-0.499 0.5499,-0.8382 1.0489,-0.7578z"/>
  <path class="fil2" d="M61.7261 83.1935c0.5053,0.0066 0.9096,0.4216 0.903,0.9269 -0.0066,0.5053 -0.4215,0.9095 -0.9269,0.9029 -0.5053,-0.0066 -0.9095,-0.4215 -0.9029,-0.9268 0.0066,-0.5053 0.4215,-0.9096 0.9268,-0.903z"/>
  <path class="fil2" d="M65.1505 82.9823c0.5007,-0.0684 0.962,0.2819 1.0304,0.7826 0.0684,0.5007 -0.2819,0.962 -0.7826,1.0304 -0.5007,0.0685 -0.962,-0.2819 -1.0304,-0.7826 -0.0685,-0.5007 0.2819,-0.962 0.7826,-1.0304z"/>
  <path class="fil2" d="M68.5144 82.2737c0.4861,-0.1383 0.9922,0.1434 1.1306,0.6294 0.1384,0.4861 -0.1433,0.9922 -0.6293,1.1305 -0.4861,0.1385 -0.9922,-0.1433 -1.1307,-0.6293 -0.1383,-0.486 0.1434,-0.9921 0.6294,-1.1306z"/>
  <path class="fil2" d="M71.7652 81.1145c0.4644,-0.1991 1.0023,0.016 1.2014,0.4805 0.199,0.4644 -0.0161,1.0023 -0.4806,1.2014 -0.4645,0.1991 -1.0023,-0.016 -1.2014,-0.4805 -0.1991,-0.4646 0.0161,-1.0023 0.4806,-1.2014z"/>
  <path class="fil2" d="M74.8697 79.5702c0.4396,-0.2492 0.9979,-0.0946 1.247,0.3452 0.249,0.4396 0.0946,0.9979 -0.3452,1.2469 -0.4396,0.2491 -0.9979,0.0946 -1.247,-0.3451 -0.2491,-0.4397 -0.0946,-0.998 0.3452,-1.247z"/>
  <path class="fil2" d="M77.8142 77.7094c0.4145,-0.2891 0.9848,-0.1875 1.2739,0.227 0.2891,0.4144 0.1875,0.9848 -0.227,1.2738 -0.4144,0.2892 -0.9848,0.1876 -1.2738,-0.2269 -0.2892,-0.4145 -0.1876,-0.9848 0.2269,-1.2739z"/>
  <path class="fil2" d="M80.5989 75.594c0.3904,-0.3209 0.9669,-0.2645 1.2878,0.1259 0.3209,0.3904 0.2645,0.9669 -0.126,1.2878 -0.3903,0.3209 -0.9668,0.2644 -1.2877,-0.1259 -0.3209,-0.3904 -0.2645,-0.9669 0.1259,-1.2878z"/>
  <path class="fil2" d="M85.3494 74.1397c-0.1381,0.486 -0.6441,0.768 -1.1302,0.6299 -0.4861,-0.1381 -0.7682,-0.6442 -0.6299,-1.1302 0.1381,-0.4862 0.6442,-0.7682 1.1302,-0.63 0.4861,0.1382 0.7681,0.6441 0.6299,1.1303z"/>
  <path class="fil2" d="M84.8534 77.5364c-0.1501,0.4825 -0.663,0.7517 -1.1455,0.6015 -0.4825,-0.1502 -0.7518,-0.6631 -0.6016,-1.1456 0.1503,-0.4825 0.6631,-0.7518 1.1456,-0.6015 0.4825,0.1501 0.7518,0.663 0.6015,1.1456z"/>
  <path class="fil2" d="M83.7338 80.9554c-0.1647,0.4778 -0.6855,0.7314 -1.1632,0.5667 -0.4778,-0.1648 -0.7314,-0.6856 -0.5667,-1.1632 0.1648,-0.4778 0.6856,-0.7314 1.1632,-0.5667 0.4778,0.1647 0.7314,0.6855 0.5667,1.1632z"/>
  <path class="fil2" d="M82.4973 84.341c-0.1826,0.4712 -0.7125,0.7051 -1.1836,0.5226 -0.4713,-0.1825 -0.7053,-0.7125 -0.5227,-1.1836 0.1826,-0.4713 0.7125,-0.7053 1.1837,-0.5227 0.4712,0.1825 0.7052,0.7124 0.5226,1.1837z"/>
  <path class="fil2" d="M81.1153 87.6797c-0.2048,0.462 -0.7453,0.6705 -1.2073,0.4656 -0.4619,-0.2048 -0.6704,-0.7453 -0.4656,-1.2073 0.2048,-0.4619 0.7453,-0.6703 1.2073,-0.4656 0.4619,0.2049 0.6704,0.7454 0.4656,1.2073z"/>
  <path class="fil2" d="M79.5473 90.95c-0.2332,0.4483 -0.7856,0.6226 -1.234,0.3894 -0.4483,-0.2332 -0.6226,-0.7857 -0.3893,-1.234 0.2332,-0.4482 0.7856,-0.6226 1.234,-0.3894 0.4482,0.2333 0.6226,0.7857 0.3893,1.234z"/>
  <path class="fil2" d="M77.7363 94.1149c-0.2702,0.427 -0.8354,0.5541 -1.2624,0.2839 -0.4271,-0.2702 -0.5542,-0.8353 -0.284,-1.2624 0.2702,-0.4269 0.8354,-0.5541 1.2624,-0.2839 0.427,0.2702 0.5542,0.8353 0.284,1.2624z"/>
  <path class="fil2" d="M75.6009 97.107c-0.3186,0.3924 -0.8948,0.4521 -1.2871,0.1335 -0.3922,-0.3186 -0.452,-0.8948 -0.1334,-1.287 0.3186,-0.3923 0.8948,-0.452 1.2871,-0.1334 0.3923,0.3185 0.452,0.8947 0.1334,1.2869z"/>
  <path class="fil2" d="M73.0351 99.7996c-0.3796,0.3335 -0.9577,0.2963 -1.2913,-0.0833 -0.3336,-0.3796 -0.2963,-0.9577 0.0834,-1.2913 0.3795,-0.3335 0.9576,-0.2962 1.2911,0.0834 0.3336,0.3795 0.2963,0.9576 -0.0832,1.2912z"/>
  <path class="fil2" d="M69.9453 101.9632c-0.4455,0.2385 -0.9999,0.0705 -1.2384,-0.375 -0.2383,-0.4456 -0.0705,-1 0.3752,-1.2384 0.4455,-0.2384 0.9999,-0.0705 1.2384,0.375 0.2383,0.4457 0.0704,1.0001 -0.3752,1.2384z"/>
  <path class="fil2" d="M66.3796 103.2937c-0.4931,0.1108 -0.9825,-0.1991 -1.0933,-0.6921 -0.1107,-0.4931 0.1992,-0.9826 0.6923,-1.0933 0.493,-0.1107 0.9824,0.1992 1.0932,0.6923 0.1107,0.493 -0.1992,0.9824 -0.6922,1.0931z"/>
  <path class="fil2" d="M62.6082 103.644c-0.5051,-0.0138 -0.9033,-0.4345 -0.8895,-0.9396 0.0138,-0.5052 0.4344,-0.9035 0.9396,-0.8897 0.5051,0.0139 0.9034,0.4346 0.8896,0.9397 -0.0138,0.5052 -0.4345,0.9034 -0.9397,0.8896z"/>
  <path class="fil2" d="M58.8585 103.0601c-0.4851,-0.1418 -0.7632,-0.6501 -0.6214,-1.1351 0.1419,-0.485 0.6501,-0.7631 1.1351,-0.6212 0.4851,0.1419 0.7631,0.65 0.6213,1.135 -0.1419,0.485 -0.65,0.7632 -1.135,0.6213z"/>
  <path class="fil2" d="M55.3873 101.5483c-0.4358,-0.2558 -0.5815,-0.8165 -0.3256,-1.2523 0.2559,-0.4357 0.8166,-0.5815 1.2523,-0.3256 0.4357,0.2559 0.5815,0.8166 0.3256,1.2523 -0.2559,0.4358 -0.8165,0.5816 -1.2523,0.3256z"/>
  <path class="fil2" d="M52.3704 99.3308c-0.3773,-0.336 -0.4106,-0.9143 -0.0745,-1.2917 0.3361,-0.3773 0.9144,-0.4107 1.2918,-0.0746 0.3773,0.3361 0.4107,0.9144 0.0745,1.2918 -0.336,0.3773 -0.9143,0.4107 -1.2918,0.0745z"/>
  <path class="fil2" d="M49.803 96.6678c-0.325,-0.3868 -0.2749,-0.964 0.112,-1.289 0.387,-0.325 0.9641,-0.2749 1.2891,0.112 0.3251,0.387 0.2749,0.964 -0.112,1.2891 -0.3869,0.3251 -0.964,0.2749 -1.2891,-0.1121z"/>
  <path class="fil2" d="M47.604 93.7365c-0.2828,-0.4188 -0.1725,-0.9876 0.2463,-1.2702 0.4188,-0.2828 0.9876,-0.1725 1.2703,0.2463 0.2827,0.4188 0.1724,0.9876 -0.2464,1.2702 -0.4188,0.2828 -0.9875,0.1725 -1.2702,-0.2463z"/>
  <path class="fil2" d="M45.6916 90.6388c-0.2494,-0.4396 -0.0952,-0.998 0.3444,-1.2473 0.4396,-0.2494 0.998,-0.0951 1.2472,0.3444 0.2494,0.4396 0.0952,0.998 -0.3444,1.2472 -0.4396,0.2494 -0.998,0.0952 -1.2472,-0.3443z"/>
  <path class="fil2" d="M44.0021 87.4326c-0.2227,-0.4536 -0.0356,-1.0019 0.418,-1.2246 0.4535,-0.2228 1.0018,-0.0356 1.2245,0.418 0.2228,0.4535 0.0357,1.0018 -0.4179,1.2245 -0.4536,0.2228 -1.0018,0.0356 -1.2246,-0.4179z"/>
  <path class="fil2" d="M42.4888 84.1521c-0.2013,-0.4635 0.0112,-1.0025 0.4747,-1.2037 0.4635,-0.2013 1.0025,0.0113 1.2038,0.4747 0.2012,0.4635 -0.0112,1.0024 -0.4748,1.2037 -0.4635,0.2013 -1.0024,-0.0112 -1.2037,-0.4747z"/>
  <path class="fil2" d="M43.7053 76.0428c-0.3903,-0.3209 -0.9669,-0.2646 -1.2877,0.1258 -0.3209,0.3905 -0.2646,0.967 0.1259,1.2878 0.3904,0.3208 0.9669,0.2645 1.2878,-0.1259 0.3208,-0.3904 0.2644,-0.967 -0.126,-1.2877z"/>
  <path class="fil2" d="M39.2347 74.4957c0.1382,0.4861 0.6441,0.7681 1.1302,0.63 0.4861,-0.1382 0.7681,-0.6442 0.63,-1.1304 -0.1382,-0.486 -0.6442,-0.768 -1.1302,-0.6299 -0.4862,0.1382 -0.7682,0.6442 -0.63,1.1303z"/>
  <path class="fil2" d="M39.7306 77.8924c0.1503,0.4825 0.6631,0.7518 1.1456,0.6016 0.4825,-0.1502 0.7518,-0.6631 0.6017,-1.1456 -0.1503,-0.4825 -0.6632,-0.7518 -1.1456,-0.6016 -0.4825,0.1502 -0.7519,0.6631 -0.6017,1.1456z"/>
  <path class="fil2" d="M40.8502 81.3115c0.1649,0.4777 0.6856,0.7314 1.1633,0.5667 0.4778,-0.1648 0.7315,-0.6856 0.5667,-1.1633 -0.1647,-0.4777 -0.6855,-0.7315 -1.1633,-0.5666 -0.4776,0.1647 -0.7314,0.6854 -0.5667,1.1632z"/>
 </g>
</svg>
