<?xml version="1.0" encoding="UTF-8"?>
<!DOCTYPE svg PUBLIC "-//W3C//DTD SVG 1.1//EN" "http://www.w3.org/Graphics/SVG/1.1/DTD/svg11.dtd">
<!-- Creator: CorelDRAW 2019 (64-Bit) -->
<svg xmlns="http://www.w3.org/2000/svg" xml:space="preserve" width="127mm" height="127mm" version="1.1" style="shape-rendering:geometricPrecision; text-rendering:geometricPrecision; image-rendering:optimizeQuality; fill-rule:evenodd; clip-rule:evenodd"
viewBox="0 0 127 127"
 xmlns:xlink="http://www.w3.org/1999/xlink"
 xmlns:xodm="http://www.corel.com/coreldraw/odm/2003">
 <defs>
  <style type="text/css">
   <![CDATA[
    .fil0 {fill:#00471E}
    .fil1 {fill:#007A3D}
    .fil2 {fill:#FFFEF8;fill-rule:nonzero}
   ]]>
  </style>
 </defs>
 <g id="Layer_x0020_1">
  <metadata id="CorelCorpID_0Corel-Layer"/>
  <g id="_3078729324048">
   <path class="fil0" d="M52.0679 118.8144c-7.6065,-0.0923 -15.2418,-0.4815 -22.7749,-1.305 -4.4615,-0.4877 -8.9247,-1.1349 -13.3207,-2.0442 -3.8308,-0.7924 -7.6807,-1.7928 -11.3464,-3.1678l-3.4087 -1.2786c-0.4603,-0.1727 -0.7779,-0.5296 -0.8958,-1.0068 -0.118,-0.4771 -0.0034,-0.9409 0.3234,-1.3082l2.42 -2.7198c4.7685,-5.3593 9.8099,-10.4567 14.6152,-15.7781 2.565,-2.8404 5.0504,-5.7475 7.3743,-8.7897 0.97,-1.2699 1.9089,-2.5601 2.8148,-3.8722 0.275,-0.3983 0.3343,-0.8633 0.1682,-1.3179 -0.1662,-0.4546 -0.5114,-0.7717 -0.9784,-0.8988l-12.0427 -3.2773c-0.516,-0.1405 -0.8886,-0.5189 -1.0211,-1.0369 -0.1325,-0.518 0.0127,-1.0289 0.3978,-1.3998l3.1706 -3.0531c4.7338,-4.5583 9.4067,-9.1704 13.7619,-14.0966 1.2494,-1.4133 2.4322,-2.9007 3.5468,-4.4358 0.2941,-0.405 0.3596,-0.8893 0.1836,-1.3578 -0.176,-0.4686 -0.5441,-0.7901 -1.0321,-0.9014 -0.3889,-0.0887 -0.7762,-0.1819 -1.1614,-0.2789 -0.8785,-0.2213 -1.773,-0.4629 -2.6355,-0.7429l-4.3945 -1.4265c-0.5185,-0.1683 -0.8772,-0.5778 -0.9757,-1.114 -0.0985,-0.5361 0.0912,-1.0464 0.516,-1.388l3.6007 -2.8953c3.881,-3.1207 7.4214,-6.5469 10.7432,-10.2536 2.959,-3.3018 5.6938,-6.7692 8.4498,-10.2384 2.323,-2.9239 4.494,-5.9792 6.4797,-9.1423 0.6051,-0.9639 1.1922,-1.9383 1.7628,-2.923 0.3086,-0.5327 0.612,-1.1063 0.9456,-1.6211l1.9992 -3.085c0.2686,-0.4144 0.6883,-0.6484 1.182,-0.6592 0.4937,-0.0107 0.9231,0.2049 1.2095,0.6073l2.1314 2.9951c0.3502,0.4922 0.6747,1.034 1.0055,1.5419 0.6192,0.9507 1.2556,1.8895 1.9095,2.8167 2.159,3.061 4.5026,6.002 6.9888,8.8032 2.962,3.3374 5.8941,6.6812 9.0521,9.8384 3.4903,3.4893 7.0432,6.6403 11.0455,9.5401l3.6708 2.6597c0.4382,0.3174 0.6532,0.8119 0.5866,1.3489 -0.0666,0.5369 -0.396,0.9639 -0.8984,1.1646l-4.2095 1.682c-0.8835,0.353 -1.8125,0.6627 -2.72,0.9446 -0.3218,0.1 -0.6455,0.1969 -0.9709,0.2904 -0.481,0.1382 -0.8306,0.4795 -0.9804,0.957 -0.1497,0.4776 -0.0576,0.9574 0.2584,1.3455 1.2024,1.4771 2.4702,2.9027 3.8,4.2516 2.3669,2.4009 4.8119,4.7242 7.3079,6.9905 2.4155,2.1933 4.8736,4.3388 7.3463,6.4672l3.3705 2.9012c0.407,0.3503 0.5803,0.8554 0.4741,1.3817 -0.1062,0.5264 -0.4617,0.9248 -0.9726,1.09l-4.2315 1.368c-2.4885,0.8045 -4.9814,1.5954 -7.473,2.3903 -0.16,0.0511 -0.3201,0.1022 -0.4802,0.1533 -0.465,0.1485 -0.7982,0.4852 -0.9419,0.9517 -0.1437,0.4665 -0.0577,0.9323 0.2431,1.3167 1.2633,1.6145 2.573,3.1919 3.9016,4.7333 3.3778,3.919 6.9588,7.6787 10.634,11.3193 2.6875,2.6621 5.4372,5.263 8.2368,7.8069 0.8731,0.7934 1.7514,1.5807 2.6337,2.3639 0.4386,0.3892 0.9053,0.7815 1.3267,1.1878l2.4901 2.4009c0.3451,0.3327 0.4956,0.7708 0.4278,1.2453 -0.0677,0.4745 -0.3348,0.8529 -0.7592,1.0758l-3.0625 1.6081c-2.1698,1.1393 -4.5874,1.9904 -6.9301,2.6964 -2.9707,0.8953 -6.0177,1.6009 -9.0591,2.2091 -7.6108,1.5217 -15.4319,2.4868 -23.1601,3.1707 -3.1949,0.2827 -6.3973,0.5152 -9.603,0.6987 -0.3622,0.0207 -0.6445,0.3196 -0.6445,0.6824l0 6.5575c0,0.7963 -0.6495,1.4459 -1.4459,1.4459l-17.8545 0c-0.7963,0 -1.4459,-0.6496 -1.4459,-1.4459l0 -6.0562c0,-0.3736 -0.3016,-0.679 -0.6752,-0.6835z"/>
   <path class="fil1" d="M55.0655 124.6776l16.1015 0 0 -5.681c0,-1.5931 1.2436,-2.9099 2.8341,-3.001 3.1804,-0.182 6.358,-0.4127 9.5311,-0.6935 7.6729,-0.679 15.3526,-1.6237 22.9094,-3.1346 2.9751,-0.5949 5.9385,-1.2796 8.8443,-2.1553 2.2145,-0.6674 4.4693,-1.4519 6.5206,-2.529l1.9877 -1.0438 -1.6161 -1.5584c-0.4035,-0.389 -0.8372,-0.7507 -1.2564,-1.1227 -0.8891,-0.7891 -1.7742,-1.5826 -2.6539,-2.382 -2.8246,-2.5666 -5.5979,-5.1899 -8.3093,-7.8758 -3.7218,-3.6866 -7.3382,-7.4842 -10.7588,-11.4529 -1.359,-1.5767 -2.6887,-3.1791 -3.9715,-4.8184 -0.7688,-0.9826 -1.0008,-2.2394 -0.6336,-3.4317 0.3675,-1.1929 1.2659,-2.1005 2.455,-2.4802 0.1602,-0.0512 0.3205,-0.1023 0.4807,-0.1535 2.4888,-0.794 4.9788,-1.584 7.4645,-2.3876l2.7465 -0.888 -2.1876 -1.8829c-2.4883,-2.1418 -4.9618,-4.301 -7.3925,-6.508 -2.5276,-2.2951 -5.0035,-4.648 -7.4006,-7.0795 -1.3865,-1.4063 -2.7005,-2.8844 -3.9472,-4.4158 -0.8081,-0.9926 -1.0563,-2.2853 -0.6732,-3.5066 0.3831,-1.2218 1.3243,-2.1406 2.555,-2.4942 0.3088,-0.0887 0.6165,-0.1808 0.9233,-0.2761 0.8573,-0.2663 1.7133,-0.5502 2.5472,-0.8834l2.7321 -1.0917 -2.3825 -1.7262c-4.0607,-2.9422 -7.7812,-6.2358 -11.3248,-9.7784 -3.1864,-3.1856 -6.1578,-6.571 -9.1472,-9.9392 -2.5452,-2.8679 -4.9393,-5.8726 -7.1496,-9.0062 -0.6703,-0.9505 -1.3229,-1.9133 -1.9577,-2.8878 -0.3167,-0.4862 -0.6155,-0.9905 -0.9517,-1.4629l-1.3834 -1.9439 -1.2975 2.0022c-0.3177,0.4902 -0.5921,1.0166 -0.8852,1.5224 -0.5842,1.0083 -1.1857,2.0066 -1.8053,2.9935 -2.0324,3.2375 -4.2504,6.3593 -6.6282,9.3522 -2.7816,3.5013 -5.553,7.0119 -8.5386,10.3436 -3.3956,3.7891 -7.051,7.3241 -11.0176,10.5136l-2.3369 1.8791 2.8523 0.926c0.8184,0.2656 1.6514,0.4895 2.4856,0.6996 0.3692,0.093 0.7394,0.1821 1.1105,0.2668 1.2487,0.2848 2.2396,1.1501 2.6899,2.349 0.4495,1.1969 0.2728,2.5044 -0.4784,3.5389 -1.1562,1.5923 -2.3827,3.1351 -3.6861,4.6095 -4.3939,4.9699 -9.115,9.6322 -13.8911,14.2313l-2.0578 1.9816 10.5523 2.8717c1.1939,0.325 2.125,1.1803 2.5497,2.3425 0.424,1.16 0.2635,2.4182 -0.4382,3.4345 -0.9279,1.3439 -1.8891,2.6648 -2.8805,3.9626 -2.3614,3.0912 -4.8897,6.05 -7.4961,8.9364 -4.8012,5.3168 -9.8418,10.4131 -14.6039,15.7653l-1.5707 1.7653 2.2124 0.8299c3.5633,1.3366 7.2776,2.2979 11.0012,3.0681 4.3285,0.8953 8.7098,1.5295 13.1026,2.0097 7.4864,0.8185 15.0219,1.2001 22.5509,1.2915 1.6442,0.0199 2.9693,1.3612 2.9693,3.0056l0 5.1798z"/>
   <path class="fil2" d="M50.7299 31.8794c2.6846,0 5.0739,1.5237 6.7666,3.987 1.5723,2.288 2.5447,5.4122 2.5447,8.8298 0,3.4175 -0.9726,6.5417 -2.5448,8.8298 -1.6926,2.4634 -4.0819,3.9871 -6.7665,3.9871 -2.6845,0 -5.0739,-1.5237 -6.7665,-3.9871 -1.5722,-2.2881 -2.5448,-5.4123 -2.5448,-8.8298 0,-3.4176 0.9725,-6.5418 2.5447,-8.8298 1.6928,-2.4633 4.082,-3.987 6.7666,-3.987zm4.1223 5.8002c-1.0939,-1.5919 -2.5545,-2.5767 -4.1223,-2.5767 -1.5678,0 -3.0283,0.9848 -4.1223,2.5767 -1.2144,1.7673 -1.9655,4.2458 -1.9655,7.0166 0,2.7707 0.7512,5.2493 1.9656,7.0166 1.0939,1.592 2.5545,2.5768 4.1222,2.5768 1.5678,0 3.0284,-0.9848 4.1223,-2.5768 1.2143,-1.7673 1.9655,-4.2459 1.9655,-7.0166 0,-2.7708 -0.7511,-5.2493 -1.9655,-7.0166z"/>
   <path class="fil2" d="M72.3014 31.3508c2.6846,0 5.0739,1.5237 6.7665,3.987 1.5722,2.2882 2.5448,5.4124 2.5448,8.8299 0,3.4176 -0.9724,6.5417 -2.5447,8.8297 -1.6928,2.4634 -4.082,3.987 -6.7666,3.987 -2.6846,0 -5.0739,-1.5236 -6.7666,-3.987 -1.5722,-2.288 -2.5447,-5.4121 -2.5447,-8.8297 0,-3.4175 0.9726,-6.5417 2.5448,-8.8299 1.6927,-2.4633 4.0819,-3.987 6.7665,-3.987zm4.1223 5.8002c-1.0939,-1.5919 -2.5546,-2.5768 -4.1223,-2.5768 -1.5678,0 -3.0283,0.9849 -4.1222,2.5768 -1.2144,1.7674 -1.9656,4.246 -1.9656,7.0167 0,2.7708 0.7511,5.2493 1.9655,7.0165 1.0939,1.592 2.5545,2.5768 4.1223,2.5768 1.5678,0 3.0284,-0.9848 4.1223,-2.5768 1.2144,-1.7672 1.9656,-4.2457 1.9656,-7.0165 0,-2.7707 -0.7513,-5.2493 -1.9656,-7.0167z"/>
   <path class="fil2" d="M37.1458 72.4465c3.673,10.0568 7.495,17.1197 11.4608,21.8189 4.4549,5.2786 9.063,7.5082 13.827,7.6461 5.0901,0.1475 9.7484,-1.8445 14.0792,-7.2248 3.937,-4.8911 7.6,-12.503 11.0555,-23.6961 -8.0127,6.8731 -16.2174,10.592 -24.6276,10.9352 -8.4769,0.3459 -17.0727,-2.7393 -25.7949,-9.4793zm9.0055 23.8965c-4.9087,-5.8164 -9.5635,-14.9202 -13.9421,-28.3435 -0.1908,-0.5406 -0.0859,-1.1661 0.327,-1.6198 0.598,-0.6571 1.6157,-0.7051 2.2728,-0.107 9.6161,8.7776 18.9446,12.8119 28.0059,12.4422 9.0685,-0.3701 17.993,-5.153 26.7844,-14.0089l0.0013 0.0012c0.3939,-0.3953 0.9831,-0.5739 1.5601,-0.4167 0.8553,0.2329 1.3599,1.1153 1.127,1.9706 -4.0538,14.7561 -8.4448,24.4469 -13.2692,30.4403 -5.0522,6.2765 -10.5783,8.5976 -16.6731,8.421 -5.6753,-0.1644 -11.0846,-2.7251 -16.1941,-8.7794z"/>
  </g>
 </g>
</svg>
