<?xml version="1.0" encoding="UTF-8"?>
<!DOCTYPE svg PUBLIC "-//W3C//DTD SVG 1.1//EN" "http://www.w3.org/Graphics/SVG/1.1/DTD/svg11.dtd">
<!-- Creator: CorelDRAW 2019 (64-Bit) -->
<svg xmlns="http://www.w3.org/2000/svg" xml:space="preserve" width="5in" height="5in" version="1.1" style="shape-rendering:geometricPrecision; text-rendering:geometricPrecision; image-rendering:optimizeQuality; fill-rule:evenodd; clip-rule:evenodd"
viewBox="0 0 5000 5000"
 xmlns:xlink="http://www.w3.org/1999/xlink"
 xmlns:xodm="http://www.corel.com/coreldraw/odm/2003">
 <defs>
  <style type="text/css">
   <![CDATA[
    .fil2 {fill:none}
    .fil0 {fill:#FFE11E}
    .fil1 {fill:#FDD700;fill-rule:nonzero}
   ]]>
  </style>
 </defs>
 <g id="Layer_x0020_1">
  <metadata id="CorelCorpID_0Corel-Layer"/>
  <g id="_3078767155440">
   <path class="fil0" d="M2698.91 471.55l435.6 1162.05c30.53,81.43 102.57,133.78 189.46,137.65l1239.78 55.19c90.19,4.01 164.68,60.7 192.58,146.57 27.9,85.87 0.96,175.5 -69.65,231.77l-970.57 773.38c-68.02,54.2 -95.54,138.89 -72.37,222.72l330.63 1196.16c24.06,87.02 -6.84,175.37 -79.88,228.44 -73.04,53.07 -166.62,55.16 -241.95,5.39l-1035.45 -684.07c-72.56,-47.94 -161.61,-47.94 -234.18,0l-1035.45 684.07c-75.33,49.77 -168.91,47.69 -241.95,-5.39 -73.04,-53.07 -103.94,-141.42 -79.88,-228.44l330.63 -1196.16c23.17,-83.82 -4.35,-168.52 -72.36,-222.72l-970.57 -773.38c-70.61,-56.26 -97.55,-145.9 -69.65,-231.77 27.9,-85.87 102.38,-142.56 192.57,-146.57l1239.79 -55.19c86.89,-3.87 158.93,-56.21 189.46,-137.65l435.6 -1162.05c31.69,-84.54 108.62,-137.86 198.91,-137.86 90.29,0 167.22,53.32 198.91,137.86z"/>
   <path class="fil1" d="M2815.51 428.12l435.6 1162.05c6.32,16.87 16.84,30.65 30.17,40.34 13.41,9.74 29.88,15.52 48.04,16.32l1239.79 55.19c71.24,3.17 136.6,27.39 189.91,67.96 53.23,40.51 93.91,96.91 115.86,164.48 22,67.72 22.29,137.24 3.09,201.15 -19.31,64.26 -57.96,122.31 -113.72,166.74l-970.57 773.38c-14.39,11.47 -24.37,25.74 -29.39,41.21 -5.07,15.59 -5.41,33.05 -0.53,50.74l330.63 1196.16c18.94,68.53 16.1,138 -5.97,201.12 -22.19,63.48 -63.31,119.77 -120.75,161.5 -57.19,41.56 -123.41,63.18 -190.86,64.68 -66.92,1.49 -133.85,-17.24 -193.07,-56.36l-1035.45 -684.08c-15.11,-9.98 -31.77,-14.97 -48.3,-14.97 -16.52,0 -33.19,4.99 -48.3,14.97l-1035.45 684.08c-59.21,39.12 -126.15,57.85 -193.07,56.36 -67.45,-1.5 -133.67,-23.12 -190.86,-64.68 -57.44,-41.73 -98.56,-98.02 -120.75,-161.5 -22.07,-63.12 -24.91,-132.59 -5.97,-201.11l330.63 -1196.16c4.89,-17.7 4.54,-35.15 -0.52,-50.75 -5.03,-15.47 -15,-29.74 -29.39,-41.21l-970.57 -773.38c-55.76,-44.43 -94.42,-102.49 -113.72,-166.74 -19.2,-63.91 -18.91,-133.43 3.09,-201.15 21.96,-67.57 62.63,-123.96 115.87,-164.48 53.3,-40.57 118.67,-64.79 189.91,-67.96l1239.78 -55.19c18.17,-0.8 34.64,-6.58 48.05,-16.32 13.33,-9.69 23.85,-23.46 30.17,-40.34l435.59 -1162.05c25.04,-66.81 68.28,-121.5 123.34,-159.67 55.27,-38.31 121.46,-59.67 192.17,-59.67 70.72,0 136.91,21.37 192.17,59.67 55.06,38.16 98.3,92.86 123.34,159.67zm202.38 1248.9l-435.6 -1162.05c-6.64,-17.72 -17.72,-31.97 -31.61,-41.59 -13.69,-9.49 -31.12,-14.79 -50.68,-14.79 -19.56,0 -36.99,5.3 -50.68,14.79 -13.9,9.63 -24.98,23.87 -31.62,41.59l-435.59 1162.05c-24.2,64.56 -64.98,117.68 -117.02,155.48 -51.97,37.76 -114.97,60.1 -183.68,63.16l-1239.78 55.19c-18.95,0.84 -35.94,6.98 -49.39,17.22 -13.53,10.3 -24.06,25.19 -30,43.48 -5.89,18.13 -6.08,36.38 -1.15,52.82 4.83,16.09 14.96,30.99 29.81,42.82l970.57 773.38c53.62,42.72 91.42,97.91 111.36,159.28 19.9,61.25 21.73,128.07 3.45,194.19l-330.63 1196.15c-5.11,18.49 -4.53,36.71 1.09,52.79 5.49,15.71 16.36,30.15 31.95,41.48 15.84,11.51 32.94,17.48 49.37,17.84 16.96,0.38 34.49,-4.74 50.6,-15.38l1035.45 -684.08c57.45,-37.96 121.6,-56.94 185.88,-56.94 64.28,0 128.43,18.98 185.88,56.94l1035.45 684.08c16.11,10.64 33.64,15.76 50.6,15.38 16.43,-0.36 33.53,-6.33 49.37,-17.84 15.59,-11.33 26.46,-25.77 31.95,-41.47 5.62,-16.08 6.2,-34.3 1.09,-52.8l-330.63 -1196.15c-18.28,-66.13 -16.45,-132.94 3.45,-194.19 19.94,-61.37 57.75,-116.56 111.37,-159.28l970.57 -773.38c14.85,-11.83 24.97,-26.72 29.81,-42.82 4.94,-16.44 4.75,-34.69 -1.15,-52.82 -5.94,-18.29 -16.46,-33.19 -29.99,-43.48 -13.45,-10.24 -30.44,-16.37 -49.39,-17.22l-1239.79 -55.19c-68.71,-3.06 -131.71,-25.4 -183.68,-63.16 -52.04,-37.8 -92.81,-90.92 -117.02,-155.48z"/>
  </g>
  <circle class="fil2" cx="2500" cy="2500" r="2500"/>
 </g>
</svg>
