<?xml version="1.0" encoding="UTF-8"?>
<!DOCTYPE svg PUBLIC "-//W3C//DTD SVG 1.1//EN" "http://www.w3.org/Graphics/SVG/1.1/DTD/svg11.dtd">
<!-- Creator: CorelDRAW 2019 (64-Bit) -->
<svg xmlns="http://www.w3.org/2000/svg" xml:space="preserve" width="106.68mm" height="42.3418mm" version="1.1" style="shape-rendering:geometricPrecision; text-rendering:geometricPrecision; image-rendering:optimizeQuality; fill-rule:evenodd; clip-rule:evenodd"
viewBox="0 0 106.68 42.3418"
 xmlns:xlink="http://www.w3.org/1999/xlink"
 xmlns:xodm="http://www.corel.com/coreldraw/odm/2003">
 <defs>
  <style type="text/css">
   <![CDATA[
    .fil0 {fill:#221B16}
    .fil2 {fill:#FABE2A}
    .fil1 {fill:#FDFDFC}
   ]]>
  </style>
 </defs>
 <g id="Layer_x0020_1">
  <metadata id="CorelCorpID_0Corel-Layer"/>
  <g id="_3077952711056">
   <polygon class="fil0" points="-0.0001,42.3545 106.6801,42.3545 106.6801,0.0211 -0.0001,0.0211 "/>
   <path class="fil1" d="M50.6302 15.1703c0.0001,0.0793 -0.0074,0.1285 -0.0097,0.1542l-1.1997 0.3561c0.0082,0.7452 0.1704,0.3275 0.2825,0.8301 -0.3606,0.6947 0.2361,0.6565 0.1978,1.1584 -0.3135,0.0787 -0.1818,0.0952 -0.4014,-0.1742 -0.0797,0.2759 0.0526,0.2367 -0.2246,0.4018 -0.3477,-0.2497 0.0359,0.0838 -0.0571,-1.2194l-0.236 -0.0781c0.1144,-0.5594 0.3467,-0.2554 0.2228,-0.9157 -0.4937,-0.0247 -0.8657,0.0228 -1.3847,-0.0591 -0.3608,-0.0569 -0.5266,-0.1009 -0.8565,-0.1653 -0.0094,-0.0002 -0.0197,-0.0023 -0.0312,-0.0061l-0.0002 0c-0.0356,-0.0117 -0.0825,-0.0394 -0.1489,-0.0743l-0.2919 -0.1001c-0.4219,0.807 0.0104,0.4901 -0.1106,1.2355l-0.29 0.0351c-0.082,0.2418 -0.1531,0.3488 -0.1816,0.5923 -0.0416,0.3563 0.1478,0.329 -0.1849,0.5622 -0.2164,-0.2523 -0.1056,-0.2007 -0.1016,-0.5668 -0.3839,0.1165 -0.045,0.1781 -0.5079,0.2545 0.0279,-0.5644 0.8154,-0.5745 0.4136,-1.2735 0.2223,-0.5155 0.4394,0.0071 0.7684,-0.9287 -0.2427,-0.2359 -0.5961,-0.3634 -0.8576,-0.5797 -0.5366,-0.4441 -0.2268,-0.3839 -0.8582,-0.2559 -0.6996,0.1418 -1.3872,-0.3772 -1.5447,-1.0616 -0.2719,-1.1821 0.0432,-4.0219 -0.0724,-5.4735l-1.1262 -0.0364c0.0732,-0.2553 2.9239,-3.1028 3.2213,-3.1979l0.0254 2.4274 0.9798 0.0362 -0.0291 0.7496 -0.9673 0.0272c-0.0915,0.9274 -0.0275,2.1574 -0.029,3.1185 -0.0031,2.1134 -0.1756,2.2134 1.0474,1.921l0.1943 0.5898 -1.1066 0.7103c0.4398,0.5159 1.2538,0.9256 1.9003,1.1002 0.8273,0.565 2.6619,0.1182 3.556,-0.0941zm5.4039 1.7837c0.2447,0.2104 0.017,0.6904 -0.0069,1.0407l0.3554 0.0952 0.0512 -0.6356c0.1901,0.274 0.0843,0.3605 0.3616,0.5034 0.5265,-0.5234 -0.3354,-0.4688 -0.2526,-1.2648l0.0047 -0.039c-0.1611,-0.5265 -0.4419,-0.1316 -0.501,-0.9714 0.6075,-0.1868 1.1647,-0.4899 1.4782,-1.0661l0.292 0.1493c0.0221,-0.2725 0.0087,-0.2019 0.0781,-0.3934 0.5825,-0.0087 1.5832,-0.1354 1.7921,-0.7305 0.1368,-0.3896 0.5572,-1.6586 0.5825,-1.9939 -1.0937,-0.0765 -0.7085,0.5704 -1.8096,0.7602 -0.7282,0.1255 -1.5137,-0.066 -2.048,-0.5644 0.9745,-0.8664 3.4542,-1.1822 3.683,-2.6214 0.3182,-2.0009 -2.4112,-2.6272 -3.9825,-2.1056 -1.6961,0.5631 -2.3813,2.5193 -2.1549,4.2162 0.2435,1.825 1.6558,2.8166 3.4055,3.0442 -0.0853,0.9859 -1.8112,1.2876 -2.6627,1.1978 -0.6644,-0.0701 -2.4076,-0.6463 -2.5785,-1.2738l0.8054 -0.0227c0.095,-0.7228 0.0826,-5.4819 -0.0794,-6.065 -0.4093,-1.4735 -2.0856,-1.514 -3.073,-0.9982 -0.3265,0.1705 -0.7109,0.5782 -0.8724,0.6374l-0.0169 -4.2161c-0.7795,0.1774 -0.7605,0.5889 -2.7162,0.8976l-0.0235 0.6297 0.615 0.059c0.3044,0.8033 -0.1517,7.688 0.1039,9.056l2.0115 0.0084c0.1006,-1.2805 -0.0242,-2.7321 0.0154,-4.0231 0.027,-0.8764 0.7077,-2.6949 1.8012,-2.1794 0.5204,0.5277 0.0523,5.1065 0.2396,6.1941l0.7365 0.0197c-0.1548,0.5895 -0.6794,0.548 -1.0386,0.8718l-0.0097 0.1542c-0.0035,0.0391 0.0051,0.0242 0.0706,-0.021 0.7153,-0.3453 0.6866,-0.3515 1.2193,-0.8718l1.1855 0.9084c-0.1998,0.7929 -0.3853,0.3191 -0.6041,0.8236 0.1998,0.3866 -0.0616,0.5626 -0.1682,0.9441 -0.4001,0.071 -0.5276,0.1767 -0.4742,0.5823 0.3446,0.0608 0.243,0.0011 0.4839,-0.1434l0.1255 -0.2555c0.2823,0.3781 -0.0436,0.2913 0.1265,0.7507l0.343 -0.0152 0.0268 -0.0837c0.0846,-0.5517 -0.1583,-0.3589 -0.0847,-0.7779 0.0023,-0.0128 0.1213,-0.3872 0.1221,-0.3891 0.1477,-0.3748 -0.0127,-0.2011 0.2737,-0.269 -0.0077,-0.6194 -0.3627,-0.5537 0.0907,-1.1045 1.1074,0.4008 1.2953,0.3137 2.432,0.3725 0.3041,0.5381 0.117,0.5061 0.0726,1.0409 0.2323,0.018 0.104,-0.0338 0.1726,0.1381z"/>
   <path class="fil1" d="M12.1068 14.7634c0.3619,0.0353 0.6591,0.1824 1.0989,0.21 0.4862,0.0305 0.8769,-0.0326 1.3283,-0.0373 0.2024,0.9074 -0.1095,0.337 -0.1746,1.0563 0.2684,0.0996 0.2098,0.6116 0.2327,0.8917 -0.1655,0.2597 -0.2227,0.2548 -0.2702,0.5862l0.0334 0.1466 0.3642 0.0384c0.139,-0.4063 -0.0234,-0.412 0.1878,-0.7166 0.3373,0.2985 0.0287,0.412 0.504,0.5201 0.533,-0.5668 -0.8812,-0.7083 -0.2453,-1.6737 -0.2333,-0.4712 -0.4274,-0.2022 -0.4054,-0.9293l1.3322 -0.5698c0.3743,0.4495 0.3257,0.568 0.9064,0.9931 0.3798,0.2779 0.984,0.4494 1.2778,0.7422 -0.1469,0.6624 -0.2851,0.2969 -0.4889,0.7652 0.3392,0.5639 -0.4124,0.6114 -0.3785,1.0586 0.1192,0.0849 0.1159,-0.0237 0.3192,0.1099 0.2018,0.1326 -0.048,0.1495 0.2829,0.2376 0.2682,-0.3278 -0.1523,-1.1334 0.5129,-1.2001 -0.074,-0.4842 -0.2121,-0.3619 -0.1268,-0.8555 0.3684,-0.1177 0.9016,0.1124 1.3258,0.1421 0.5653,0.0396 1.0105,-0.0748 1.5012,-0.0623 0.2321,0.9701 -0.1008,0.4152 -0.1539,1.2527l0.2745 0.0545c0.0701,0.6835 -0.0293,1.0242 0.0803,1.1944 0.418,-0.1081 0.0705,-0.1436 0.3173,-0.4844 0.2268,0.2817 0.0303,0.219 0.3592,0.3453 0.2753,-0.5545 -0.2012,0.0361 -0.2861,-1.1235l0.186 -0.1565c-0.1366,-0.6911 -0.4846,-0.091 -0.5461,-1.1116 0.4102,-0.2223 0.906,-0.3333 1.324,-0.5846 0.4859,-0.2921 0.6474,-0.5805 1.0275,-0.8482 0.8006,0.474 0.551,0.5799 1.6928,0.922 0.1272,1.0307 -0.2281,0.4754 -0.3435,1.0982 0.1647,0.1533 0.0962,0.6948 0.0085,0.8911 -0.1604,0.3592 -0.3302,0.0387 -0.3435,0.7004 0.2859,0.1887 0.0094,0.0816 0.3237,0.105 0.1712,-0.2971 0.0938,-0.4858 0.3343,-0.6415 0.2079,0.2813 -0.013,0.5879 0.4734,0.6052 0.2509,-0.4429 0.0195,-0.4253 -0.1356,-0.7099 -0.1196,-0.2195 -0.2054,-0.7954 0.1665,-0.8601 -0.062,-0.6913 -0.3508,-0.2161 -0.2451,-1.1142 0.5088,-0.0329 0.9478,0.0566 1.5063,-0.0263 0.3745,-0.0557 0.9154,-0.2981 1.2425,-0.2513 0.1327,0.5834 0.0177,0.3702 -0.04,0.8661 0.6177,0.2835 0.1048,0.6983 0.2777,1.0916 0.5381,0.0645 -0.0124,-0.1938 0.4941,-0.0754 0.1279,0.0298 -0.1013,0.0419 0.2297,0.086 0.085,-0.6599 -0.5588,-0.2301 -0.3288,-1.3992 -0.3212,-0.37 -0.4223,-0.0858 -0.4928,-0.6973 0.3975,-0.3409 0.7597,-0.4146 1.1697,-0.8945l-0.0359 -0.1115c-1.1147,0.7118 -1.2853,1.0677 -2.7759,1.2228 -0.8625,0.0897 -2.5919,-0.092 -3.0072,-0.9875 0.1129,-0.5205 0.5888,-1.2468 -0.1059,-1.6139 -0.9959,0.0324 -0.2646,1.197 -0.2008,1.6746 -0.8294,1.0963 -2.6134,1.6155 -3.9423,1.479 -0.9975,-0.1024 -3.3093,-0.8639 -3.4209,-2.0395 0.2926,-0.4852 0.9931,-0.9322 0.4875,-1.6388 -0.9342,-0.2444 -0.7566,1.1988 -0.802,1.6224 -0.7213,0.6581 -2.9332,1.035 -3.7178,0.5143l-0.5159 -0.1725c0.2012,-0.1459 1.7725,-0.2997 2.3288,-0.5446 2.2706,-1.0001 2.8695,-3.6622 2.5169,-5.9618 -0.2231,-1.4545 -0.978,-2.7967 -2.3082,-3.4614 -1.087,-0.5431 -4.074,-0.7459 -5.2081,-0.4905l-0.0029 10.3328c1.4875,0.1233 1.7647,-0.2479 2.6794,0.3129 -0.0588,0.638 -0.4479,0.5151 -0.5636,0.735 -0.1472,0 -0.1234,-0.0411 -0.1041,0.0936 -0.0017,0.9329 -0.796,0.448 -0.5608,1.2454 0.3464,-0.0257 0.2124,-0.1578 0.4717,-0.3869 -0.0023,0.3517 -0.1152,0.3017 0.0001,0.6079 0.6058,-0.0315 0.1578,-0.4206 0.5039,-1.077l0.205 -0.0561c0.1344,-0.4944 -0.199,-0.5946 0.3884,-0.9861z"/>
   <path class="fil1" d="M29.7615 14.3393l0.0359 0.1115 0.412 -0.5733c0.7626,0.2394 0.8741,0.3512 1.7314,0.4537 -0.0502,1.0008 -0.3774,0.6318 -0.5253,1.1924 0.4727,0.66 -0.8024,0.9762 -0.0883,1.4607 0.3359,-0.2293 0.0954,-0.2435 0.3406,-0.5566 0.0344,0.2515 0.0217,0.4745 0.1743,0.6715 0.4827,-0.1118 0.2799,-0.4136 0.1646,-0.7345 -0.1653,-0.4599 0.1043,-0.5794 0.189,-0.9201 -0.1917,-0.6795 -0.16,-0.3805 0.0081,-1.0886l1.3292 -0.076c0.2489,-0.12 0.1398,-0.3861 0.7434,-0.3793 0.3063,0.6605 0.0618,0.4524 0.1826,1.0377 0.5418,-0.0585 0.3882,0.6015 0.6006,0.8964 0.2999,-0.1176 0.1371,-0.1088 0.1153,-0.4595l0.4008 0.2086c0.0462,-0.5313 -0.6723,-0.294 -0.4392,-1.075 -0.3724,-0.4472 -0.5023,0.0042 -0.7599,-0.7608 0.1603,-0.1796 0.2879,-0.2125 0.4597,-0.3957 0.16,-0.1706 0.1904,-0.2908 0.3789,-0.4629l0.4691 1.3894 2.0342 0.0113c-0.0003,-0.4122 -0.6868,-2.2672 -0.8602,-2.7925 -0.4614,-1.3976 -0.3797,-1.4756 -1.65,-2.1595 0.1821,-0.2834 0.768,-0.7141 1.0863,-0.9619 0.1808,-0.1408 0.389,-0.303 0.581,-0.4352 0.3251,-0.2239 0.5249,-0.2086 0.7486,-0.3714l-0.0181 -0.5354 -2.9096 -0.0155c-0.1573,0.9465 0.0738,0.4575 0.3687,0.7869 -0.1055,0.4101 -1.0984,1.7321 -1.4055,1.8383l-0.0075 -6.0056c-0.7754,0.1691 -0.7025,0.5625 -2.7228,0.8981l-0.0229 0.624 0.6158 0.0606c0.159,0.4115 0.1691,8.2294 0.0312,8.9056 -0.4049,-0.0189 -0.8839,-0.2245 -1.2413,-0.4004 -0.1466,-0.7769 0.307,-1.3154 0.3784,-2.0366 -0.9914,-0.059 -0.5801,0.2353 -1.3488,0.5706 -0.53,0.2312 -1.0774,0.261 -1.6396,0.104 -2.3292,-0.6505 -2.395,-4.9572 -0.2851,-4.3786 1.0736,0.2945 1.2327,1.413 1.7123,2.1918 0.2963,-0.0556 1.5493,-0.7142 1.7496,-0.9274 -1.0043,-2.9911 -5.3038,-3.0478 -6.3212,0.1734 -0.7688,2.4342 0.661,4.6071 2.8584,4.9146 1.1649,0.1631 1.4003,-0.0835 2.3857,-0.2474l-0.0404 0.2486z"/>
   <path class="fil1" d="M28.0153 22.2767c-4.7113,1.0523 -3.3926,8.5082 1.5339,7.63 2.0864,-0.3719 3.2952,-2.59 2.9333,-4.6263 -0.3649,-2.0528 -2.4072,-3.4638 -4.4672,-3.0037z"/>
   <path class="fil1" d="M75.6608 6.9935c-3.7692,0.8007 -3.0383,8.3038 1.3723,7.3094 3.7171,-0.838 3.023,-8.2431 -1.3723,-7.3094z"/>
   <path class="fil1" d="M75.9696 25.5835c0.8386,0.9447 1.6624,2.1742 2.4426,3.2149 0.56,0.747 0.645,1.206 1.7603,1.0223 0.8769,-0.1444 0.5732,-1.6136 0.5732,-2.2829 0,-0.9313 0,-1.8627 0,-2.794 0,-0.6364 0.2479,-2.1714 -0.4514,-2.3996 -1.309,-0.4272 -1.3613,0.4164 -1.3588,1.3832 0.0019,0.6998 0.0794,2.2363 -0.0353,2.8376 -0.2788,-0.1776 -2.0027,-2.6629 -2.3836,-3.1541 -0.5405,-0.6973 -0.625,-1.2011 -1.6678,-1.1179 -0.9189,0.0734 -0.7168,0.7131 -0.7167,2.1968 0,0.9313 0,1.8627 0,2.794 0,0.6146 -0.2167,2.2617 0.4169,2.4966 0.2629,0.0975 0.9565,0.0932 1.186,-0.0829 0.4254,-0.3266 0.102,-2.8647 0.2346,-4.114z"/>
   <path class="fil1" d="M35.0608 25.609c0.6918,0.6621 1.7727,2.3046 2.4089,3.1532 0.5276,0.7035 0.6913,1.2082 1.7302,1.0656 0.9175,-0.126 0.6294,-1.5158 0.6294,-2.29 0,-0.9313 0,-1.8627 0,-2.794 0,-0.6345 0.2654,-2.2396 -0.4932,-2.4172 -2.0556,-0.4812 -1.0472,1.645 -1.3435,4.2581 -0.5632,-0.5092 -1.8756,-2.4587 -2.4252,-3.202 -0.5171,-0.6993 -0.6658,-1.2116 -1.6935,-1.0845 -0.9516,0.1177 -0.6583,1.4966 -0.6583,2.1916 0.0001,0.9313 0,1.8627 0,2.794 0,0.556 -0.1998,2.2572 0.3671,2.4854 0.2991,0.1205 0.9955,0.1284 1.2448,-0.0882 0.4393,-0.3816 0.0223,-2.8594 0.2333,-4.072z"/>
   <path class="fil1" d="M23.8013 11.6452c-1.2116,-0.0212 -0.6604,0.6607 -1.968,0.7862 -0.6598,0.0634 -1.3868,-0.1219 -1.867,-0.5732 0.6802,-0.9094 5.0069,-1.4255 3.3789,-3.8564 -0.8865,-1.3236 -3.8917,-1.7442 -5.2883,0.4252 -1.8179,2.8239 0.5238,6.9532 4.4124,5.7698 0.7799,-0.2373 0.6831,-0.2892 0.92,-1.0386 0.1337,-0.4235 0.4099,-1.1065 0.412,-1.513z"/>
   <path class="fil1" d="M50.0519 28.0145l-0.0339 -1.038c2.0786,-0.1552 2.9079,0.4331 2.9405,-0.8762 0.0354,-1.4185 -0.8671,-0.8037 -2.9066,-0.9645l-0.0269 -1.0255c0.6827,-0.0324 3.3916,0.0902 3.7594,-0.1061 0.3888,-0.2075 0.416,-1.1617 0.1829,-1.4953 -0.2829,-0.405 -1.2667,-0.2379 -1.728,-0.2378 -4.7685,0.0014 -4.0645,-0.6869 -4.0645,3.7427 0,0.6059 -0.1452,3.3724 0.229,3.6651 0.23,0.18 5.2029,0.3607 5.5245,-0.03 0.2673,-0.3246 0.2954,-1.2816 -0.0839,-1.5146 -0.3844,-0.236 -3.1198,-0.0668 -3.7925,-0.1198z"/>
   <path class="fil1" d="M91.0811 14.4468l0.1823 -0.1505 0.1944 0.1511c0.4176,0.3698 1.0895,0.6666 1.3277,0.8965 -0.0931,0.151 -0.2093,0.4042 -0.3322,0.513 -0.2476,0.2191 -0.2575,0.0266 -0.501,0.3556 -0.0125,1.0208 -0.8835,0.4769 -0.6633,1.4053 0.4766,-0.0101 0.2221,-0.205 0.5722,-0.4215l-0.1068 0.6756 0.4573 -0.0596c0.039,-0.723 -0.1271,-0.5028 0.2014,-1.1647l0.2238 -0.0345c0.1487,-0.7624 -0.1816,-0.4487 0.4009,-1.2197 0.3159,0.0422 0.6278,0.1413 0.9568,0.1706 0.3911,0.035 0.7353,-0.0302 1.1026,0.0126 0.2105,0.7533 -0.0711,0.4407 -0.1104,1.085 0.5978,0.0664 0.0752,0.6809 0.3564,1.059 0.2917,-0.2228 0.0248,-0.1073 0.2366,-0.4237 0.2303,0.2925 0.0165,0.1954 0.3354,0.2476 -0.0136,-0.4682 -0.552,-0.5193 -0.1591,-1.0881 -0.2366,-0.5922 -0.376,-0.0142 -0.477,-0.9493 0.4278,-0.1199 0.8644,-0.2699 1.0278,-0.4753 0.2488,-0.3129 0.3925,-0.5515 0.4628,-0.7315l0.017 -0.0003c0.2153,-0.4125 0.1355,-5.559 -0.0033,-6.0608 -0.2434,-0.8807 -0.8464,-1.2866 -1.7869,-1.3121 -1.0671,-0.029 -1.4614,0.3576 -2.1603,0.9588l-0.0356 -1.1676c-0.4284,0.1836 -0.8182,0.4313 -1.2606,0.606 -0.4415,0.1744 -1.0827,0.1667 -1.4602,0.3856l-0.0153 0.5256 0.6434 0.125c0.2919,1.1786 -0.2694,5.5276 0.1952,5.9485 -0.1929,0.6032 -1.7964,0.7228 -2.3417,0.7358 -0.9335,0.0222 -1.9089,-0.0583 -2.6486,-0.6294l-0.0612 0.1612c0.704,0.3041 0.8896,0.4032 1.6651,0.6198 -0.2059,0.9067 -0.5336,0.678 -0.6588,1.1488 0.425,0.7291 -0.8778,0.8304 -0.2485,1.4644 0.3873,-0.1726 0.1441,-0.2411 0.4265,-0.5438 0.02,0.3346 -0.0769,0.4065 0.1115,0.6701 0.5351,-0.0372 0.2741,-0.4316 0.2234,-0.7461 -0.0986,-0.6124 0.2632,-0.4989 0.256,-0.971 -0.1372,-0.4279 -0.0667,-0.5771 0.1516,-0.9842l1.309 -0.0227c0.0581,0.5463 0.039,0.3588 -0.1759,0.7603 -0.0047,0.3118 0.1617,0.3099 0.0559,0.7025 -0.1011,0.3749 -0.2536,0.095 -0.203,0.5901 0.2547,0.0431 0.0468,-0.0173 0.1985,-0.0118 0.501,0.018 0.0447,0.1422 0.5182,0.1924 0.0682,-0.4352 -0.0079,-0.1999 -0.0729,-0.5075 -0.0591,-0.2793 -0.0357,-0.3806 -0.031,-0.6701l0.2269 -0.1087c-0.1072,-0.6225 -0.464,-0.2243 -0.2728,-0.9757 0.818,-0.2682 0.9902,-0.1248 1.7498,-0.7366zm0.5686 -0.0894c0.0872,-0.0274 0.1834,-0.0334 0.3758,-0.0331 0.2532,0.0004 0.5077,0.0051 0.7616,0.0051 0.1204,-1.3199 -0.0241,-2.804 0.0334,-4.1483 0.037,-0.8631 0.7663,-2.6251 1.8071,-2.0891 0.4217,0.4286 0.1493,5.2579 0.2214,6.2374l1.5777 -0.0239c0.0337,0.0036 0.0689,0.0069 0.1074,0.0094 -0.5367,1.6064 -3.8918,1.2844 -4.8844,0.0425zm-5.7287 0.0364c0.0395,-0.029 0.0616,-0.0495 0.0743,-0.0638l0.2797 0.0112c1.7021,0.3439 2.4815,-2.0675 2.8933,-3.3126 0.4695,-1.4192 1.1315,-4.0014 -0.6917,-4.7066l-1.7305 0.9643c0.4545,0.5349 1.5644,0.7889 1.4211,2.8116 -0.0481,0.6794 -0.4556,2.9219 -1.0231,3.1936 -0.7042,-0.7819 -1.1763,-5.0595 -1.6991,-6.2425l-2.0201 -0.0284c0.0691,1.3425 1.0703,3.9553 0.9176,4.9373 -0.0643,0.4139 -0.3168,1.2144 -0.6843,1.3445 -0.5759,-0.6648 -1.1597,-5.1723 -1.7051,-6.2579l-1.9755 -0.0267c-0.0114,0.81 0.958,4.5545 1.2549,5.5062 0.2605,0.8351 0.5264,1.6225 1.5006,1.8179 1.1525,0.2312 1.5596,-0.4956 2.1311,-1.2519 0.0835,0.2123 0.0736,0.4695 0.2614,0.7799 0.1731,0.286 0.3532,0.3265 0.4772,0.6357 -0.4935,0.919 -1.2393,0.8844 -1.6744,1.3035 -0.4097,-0.0113 -0.8551,0.1461 -1.2911,0.165 -0.4581,0.0197 -0.9303,-0.0205 -1.3774,-0.1121 -0.7387,-0.1511 -1.3288,-0.4898 -1.8002,-1.0959 0.1121,-0.486 0.8157,-1.4941 -0.1284,-1.7068 -0.7041,0.3502 -0.2082,1.1528 -0.1786,1.697 -0.994,0.9487 -1.6184,0.8513 -2.3245,1.1436 -1.2833,0.0685 -2.0199,0.0875 -3.158,-0.4836 -0.7916,-0.3971 -1.7131,-0.9441 -1.9075,-1.8488 0.2884,-0.4725 1.2636,-1.088 0.5745,-1.7316 -0.8176,-0.085 -0.807,1.0623 -0.8226,1.6195 -0.4821,0.3028 -1.0905,0.5416 -1.6657,0.4747l-0.0116 -9.0925c0.9749,0.0035 2.0634,1.131 2.701,1.6842l0.0504 -2.6259 -7.5491 0.0013 -0.0135 2.5727c0.4526,-0.1183 1.5893,-1.619 2.7408,-1.6642 0.195,2.6097 -0.1863,7.1111 0.0279,9.4634 0.4994,0.0619 1.6625,0.0473 2.1375,-0.0295 0.0877,0.693 -0.0505,0.4074 -0.2434,0.8858 0.1264,0.4962 0.1996,0.6973 0.0314,1.2305 -0.2741,0.166 -0.2074,0.1507 -0.1977,0.4977 0.2886,0.1303 0.0779,0.1278 0.3649,0.0382l0.0413 -0.1656 0.0684 0.1215 0.0309 -0.5203c0.4411,-0.1373 -0.0244,0.3774 0.5777,0.5099 0.2481,-0.2842 0.1761,-0.3457 -0.0385,-0.591 -0.3228,-0.3692 -0.2239,-0.394 -0.2583,-0.912l0.2116 -0.0944c-0.1227,-0.6617 -0.4288,-0.2571 -0.3571,-1.0907l1.3862 -0.4413c0.3377,0.4055 0.262,0.6286 0.8173,1.0678 0.405,0.3203 0.8076,0.535 1.2259,0.8216 -0.1597,0.7262 -0.2536,0.2814 -0.5528,0.7712 0.2716,0.4763 -0.3812,0.6253 -0.5031,1.0179 0.262,0.1546 0.1262,0.1437 0.413,-0.022 0.0104,0.4605 -0.1039,0.323 0.204,0.4519 0.274,-0.4222 -0.0881,-1.2247 0.6175,-1.1713 -0.0415,-0.4804 -0.2199,-0.4703 -0.0127,-0.951 0.3105,0.0395 0.8262,0.2635 1.2419,0.3421 0.5223,0.0988 1.1878,-0.0059 1.5742,0.1046 0.0462,0.9534 -0.1605,0.4117 -0.3045,1.2178l0.2604 0.0644c0.143,1.234 -0.2961,0.7329 0.0054,1.2364 0.4234,-0.1658 0.0766,-0.1584 0.3328,-0.4968 0.2004,0.2746 0.023,0.2646 0.3443,0.3955 0.2986,-0.4802 -0.3494,-0.3245 -0.1546,-1.2077l0.1927 -0.0687c-0.1613,-0.6794 -0.6884,-0.361 -0.4177,-1.2536 1.3627,-0.3326 1.3101,-0.4034 2.4035,-1.1358 0.3379,0.1547 0.3943,0.3787 0.7167,0.5946 0.2876,0.1925 0.624,0.3037 0.9191,0.4547 0.0981,0.9828 -0.2002,0.4753 -0.4537,1.0917 0.2297,0.3021 -0.005,0.8145 -0.0844,0.9196 -0.1986,0.2629 -0.5828,0.3036 -0.235,0.7673 0.5675,-0.0593 0.129,-0.3811 0.5874,-0.5863 0.1851,0.3981 -0.097,0.5777 0.4206,0.6013 0.2463,-0.3985 0.0699,-0.3755 -0.0742,-0.685 -0.1394,-0.2996 -0.0422,-0.4952 0.0214,-0.8368l0.2342 -0.0779c-0.1058,-0.6379 -0.3455,-0.3002 -0.1598,-1.098 0.4937,0.0126 0.8645,0.1278 1.4214,0.0962 0.4778,-0.0272 0.9289,-0.1624 1.3257,-0.1859 0.1717,0.7289 -0.0281,0.4067 -0.0562,1.0047 0.5502,0.1538 0.0175,0.7281 0.1787,1.0918 0.2786,-0.004 0.1736,0.0962 0.3311,-0.2557 0.2199,0.2949 0.0233,0.2676 0.4153,0.2775 -0.0162,-0.6529 -0.2526,-0.0528 -0.3617,-1.2001l0.1953 -0.0979c-0.2612,-0.5316 -0.5747,-0.1969 -0.475,-0.9472 1.1506,-0.3854 1.0515,-0.7986 1.7475,-1.2442l0.0944 -0.2486 -0.025 0.0658z"/>
   <path class="fil1" d="M67.3903 29.8961c0.5876,-0.5359 0.5665,-1.1589 0.9695,-1.6375l2.8224 -0.0262c0.5534,0.6905 0.4862,2.1082 1.7054,1.5825 1.2222,-0.5268 0.4621,-1.3194 0.0335,-2.2131 -0.756,-1.5765 -1.5062,-3.1716 -2.2928,-4.7307 -0.5982,-1.1856 -1.4801,-0.5224 -1.9061,0.4072 -0.3705,0.8086 -0.7849,1.5877 -1.1584,2.3972 -0.3732,0.8088 -0.7877,1.5866 -1.1604,2.3945 -0.1843,0.3996 -0.5732,0.9157 -0.2984,1.3398 0.2353,0.3632 0.8927,0.5404 1.2853,0.4863z"/>
   <path class="fil1" d="M56.37 22.2789c-1.5528,0.4305 -3.0207,3.3326 0.3638,4.4076 0.5829,0.1851 1.8481,0.2069 1.4609,1.1291 -0.2902,0.6912 -1.2558,0.4677 -1.7151,0.054 -0.6347,-0.5716 -0.9455,-1.0219 -1.6692,-0.1299 -0.7121,0.8777 0.962,2.3716 2.8501,2.188 1.5852,-0.1542 2.5917,-1.2515 2.4091,-2.8703 -0.2311,-2.0502 -2.2393,-1.4866 -3.2083,-2.1112 -0.728,-0.4694 -0.1323,-1.3172 0.7944,-1.0482 0.6728,0.1953 0.9372,1.0736 1.7377,0.0416 1.1315,-1.4588 -1.9315,-1.9635 -3.0234,-1.6607z"/>
   <path class="fil0" d="M11.1857 13.466c2.627,0.4595 3.4149,-2.2516 3.4485,-4.3014 0.0176,-1.074 -0.1113,-2.2734 -0.6705,-3.2107 -0.5079,-0.8514 -1.8127,-1.5342 -2.7731,-1.194 -0.0947,0.4545 -0.0988,8.2823 -0.0049,8.7061z"/>
   <path class="fil1" d="M21.4695 22.251c-2.923,0.4539 -4.3595,3.3918 -2.8056,5.9264 0.6146,1.0023 2.0532,1.7485 3.2642,1.7661 0.6425,0.0093 1.4161,-0.1966 1.962,-0.5283 0.7416,-0.4505 0.8934,-0.7292 0.2949,-1.5085 -0.883,-1.1497 -1.7101,1.2023 -3.5561,-0.2552 -1.0854,-0.8569 -0.9777,-2.6056 0.2148,-3.3134 1.9986,-1.1861 2.5869,1.3436 3.572,-0.4129 0.7259,-1.2944 -2.0534,-1.8128 -2.9462,-1.6742z"/>
   <path class="fil1" d="M60.1064 23.5692c0.4841,0.3901 1.9239,0.1276 2.5805,0.214 0.1217,0.5875 0.0178,4.0217 0.0304,5.1133 0.0081,0.7012 0.1182,0.937 0.8663,0.9479 1.1871,0.0173 0.9329,-0.6672 0.9329,-2.5606 0,-0.7027 -0.0873,-2.9889 0.0423,-3.5052 1.2866,-0.1429 3.0545,0.5033 2.6418,-1.1258 -0.1122,-0.443 -0.5231,-0.386 -0.9036,-0.3851l-5.0833 0.0027c-0.9233,-0.0058 -1.615,0.1487 -1.1073,1.2988z"/>
   <path class="fil1" d="M40.5034 23.6065c0.5289,0.3121 1.8819,0.098 2.5492,0.1721 0.1284,0.5117 0.0227,4.0767 0.0398,5.1182 0.0116,0.7067 0.0924,0.9293 0.8483,0.9467 1.2085,0.0277 0.95,-0.5838 0.95,-2.5597 0,-0.7866 -0.0973,-2.8681 0.0337,-3.5006 0.6401,-0.0842 2.1162,0.1761 2.5676,-0.2265 0.1405,-0.2795 0.187,-0.7466 0.0289,-1.0362 -0.1793,-0.3285 -0.7134,-0.2534 -1.0381,-0.2508l-4.997 -0.0002c-0.334,-0.0025 -0.8495,-0.077 -1.0309,0.2539 -0.1694,0.3089 -0.0981,0.7857 0.0485,1.0831z"/>
   <path class="fil1" d="M84.0138 23.788c0.1143,0.7329 0.0073,3.9196 0.0208,5.1079 0.0081,0.7142 0.1245,0.9457 0.8858,0.9492 1.1659,0.0053 0.9053,-0.7347 0.9053,-2.5613 0,-0.6439 -0.0862,-3.075 0.0579,-3.5052 0.7256,-0.0758 1.7797,0.1053 2.4409,-0.1113 0.2336,-0.2737 0.3394,-0.9253 0.0884,-1.2254 -0.2833,-0.3388 -4.2251,-0.1708 -4.7622,-0.1708 -1.0191,0 -2.4699,-0.4007 -2.3319,0.9266 0.1039,0.9994 1.2837,0.3703 2.695,0.5903z"/>
   <path class="fil0" d="M92.7871 14.3294l-1.1819 -0.0305c0.9323,1.2899 4.3839,1.6473 4.9289,0.016l-1.6851 0.0145c-0.0721,-0.9795 0.2003,-5.8088 -0.2214,-6.2374 -1.0408,-0.536 -1.7701,1.226 -1.8071,2.0891 -0.0575,1.3443 0.087,2.8284 -0.0334,4.1483z"/>
   <path class="fil0" d="M28.5357 24.0341c-2.6111,0.5021 -1.885,4.5525 0.6507,4.0686 1.0968,-0.2093 1.6769,-1.3206 1.5168,-2.4064 -0.1472,-0.9987 -1.0987,-1.8677 -2.1675,-1.6622z"/>
   <path class="fil0" d="M75.5388 7.9014c-1.3566,0.9697 0.3483,6.4206 1.6627,5.4871 1.2767,-0.9068 -0.4043,-6.3866 -1.6627,-5.4871z"/>
   <path class="fil1" d="M62.5789 35.3001c-1.9899,0.5199 -1.4465,4.0399 0.8419,3.5171 1.9671,-0.4494 1.502,-4.1296 -0.8419,-3.5171z"/>
   <path class="fil1" d="M72.2571 35.3135c-1.9651,0.5297 -1.3902,4.1576 0.9696,3.4759 1.8584,-0.5368 1.3778,-4.1085 -0.9696,-3.4759z"/>
   <polygon class="fil1" points="43.3907,38.7553 44.0027,38.8009 44.0325,36.5504 46.5154,36.5377 46.5382,38.7754 47.1438,38.7962 47.1698,33.9957 46.5684,33.9752 46.5284,35.945 44.0706,35.9625 44.0216,33.9951 43.4056,33.9912 "/>
   <path class="fil1" d="M57.0432 37.7343l-0.4915 -0.0585c-0.3984,0.4345 -0.4238,0.849 -1.2342,0.6685 -0.5274,-0.1175 -0.7313,-0.6432 -0.7634,-1.129l2.5741 -0.029c0.0929,-2.4813 -2.835,-2.5416 -3.1632,-0.5612 -0.4833,2.9155 3.1465,2.6636 3.0782,1.1092z"/>
   <path class="fil1" d="M79.8241 37.7318l-0.4971 -0.0556c-0.3925,0.4275 -0.3698,0.8109 -1.1612,0.6809 -0.5669,-0.0931 -0.8329,-0.6383 -0.8097,-1.1523l2.5473 -0.0174c0.1272,-2.4335 -2.829,-2.6018 -3.1563,-0.5426 -0.4682,2.946 3.1719,2.5897 3.077,1.087z"/>
   <path class="fil1" d="M51.0978 37.7482l-0.5455 -0.0636c-0.3261,0.4708 -0.4395,0.8009 -1.1679,0.6694 -0.5632,-0.1017 -0.7909,-0.6382 -0.7917,-1.1492l2.5473 -0.0159c0.2257,-2.3863 -2.8599,-2.6384 -3.1501,-0.5088 -0.3918,2.8747 3.0216,2.5693 3.1079,1.0681z"/>
   <path class="fil1" d="M30.9855 37.2671l-0.5522 -0.1488c-0.4471,0.7164 -0.5231,1.3781 -1.7285,1.1802 -0.8399,-0.1379 -1.2098,-0.9111 -1.2572,-1.7021 -0.1266,-2.1091 2.0208,-3.0726 2.8671,-1.1843l0.5787 -0.0882c-0.0619,-1.9005 -4.3127,-2.1989 -4.1048,1.1908 0.201,3.2769 3.941,2.8259 4.1969,0.7524z"/>
   <path class="fil0" d="M55.8793 11.1144c0.8807,-0.2574 3.3231,-2.3068 1.5292,-3.1319 -1.9617,-0.9023 -2.3875,1.9078 -1.5292,3.1319z"/>
   <path class="fil0" d="M19.3825 11.1003c0.6793,-0.0698 3.2975,-2.124 1.7194,-3.0522 -0.7469,-0.4394 -1.6489,-0.2002 -1.9641,0.6057 -0.284,0.7265 -0.0905,1.7724 0.2447,2.4465z"/>
   <polygon class="fil1" points="68.641,38.7878 69.2565,38.7973 71.1733,34.0128 70.5337,33.9693 68.9792,38.1911 67.4779,33.9875 66.8144,33.9756 "/>
   <path class="fil1" d="M38.0781 38.775l0.5781 0.0132c0.0702,-0.685 -0.2279,-1.4265 0.4365,-1.7206 0.1995,0.2159 0.5377,0.7667 0.7111,1.0402 0.409,0.6451 0.2818,0.7783 1.1289,0.6638l-1.4155 -2.1387 1.2537 -1.2866c-1.1825,-0.214 -1.2494,0.7696 -2.0675,1.2945l-0.0343 -2.6351 -0.5481 -0.0298 -0.0429 4.7991z"/>
   <path class="fil0" d="M72.3381 35.833c-1.2108,0.5491 -0.6595,3.1485 0.8082,2.4548 1.0351,-0.4894 0.7082,-3.1425 -0.8082,-2.4548z"/>
   <path class="fil0" d="M62.6406 35.8012c-1.1329,0.4439 -0.8057,2.9984 0.7172,2.5168 1.154,-0.3649 0.8099,-3.1151 -0.7172,-2.5168z"/>
   <path class="fil1" d="M37.5207 37.6169l-0.5134 -0.0868c-0.2391,0.549 -0.3166,0.9546 -1.0916,0.832 -0.987,-0.1562 -1.0125,-2.1622 -0.202,-2.5431 0.826,-0.3881 0.9667,0.2496 1.2917,0.5962l0.484 -0.0874c-0.2739,-1.5928 -2.9543,-1.5718 -2.9437,0.7779 0.0108,2.3573 2.9486,2.177 2.975,0.5112z"/>
   <path class="fil1" d="M75.1334 35.2453c-0.2721,0.1015 -0.4753,-0.0181 -0.4227,0.3231 0.0578,0.3758 0.1123,0.0833 0.426,0.2712 0.0496,2.4069 -0.3424,3.1449 1.2581,2.9499l-0.0396 -0.4175c-0.4961,-0.3346 -0.6341,0.2337 -0.6237,-0.9262 0.0048,-0.5375 -0.0071,-1.0764 0.0112,-1.6134l0.5858 -0.0945 -0.001 -0.3782 -0.5881 -0.0841 -0.0046 -1.1027c-0.6766,0.0267 -0.5827,0.5247 -0.6014,1.0724z"/>
   <path class="fil1" d="M59.8702 34.4107l-0.0399 0.8308c-0.3946,0.2053 -0.3507,-0.1599 -0.4154,0.2657 -0.0686,0.451 0.0904,0.1597 0.4173,0.3289 0.0571,2.3084 -0.3718,3.1567 1.2464,2.9539 -0.0555,-1.5814 -0.7892,1.2843 -0.6505,-2.9576 0.3304,-0.1271 0.3386,0.0412 0.5886,-0.1648l-0.0023 -0.2576c-0.2477,-0.2059 -0.2559,-0.0377 -0.5863,-0.1647l-0.008 -1.0823 -0.5499 0.2477z"/>
   <path class="fil0" d="M33.6614 13.8714c0.4582,-0.0109 1.0922,-0.5915 1.3231,-0.9656 0.4118,-0.667 -0.2848,-1.1997 -0.4513,-1.6125 -0.1218,-0.3016 0.0077,-0.7602 -0.5659,-0.6174 -0.3804,0.0947 -0.3199,0.5242 -0.3168,0.8555 0.0072,0.7707 -0.0233,1.5759 0.0109,2.34z"/>
   <polygon class="fil1" points="31.7176,38.799 32.3056,38.782 32.3123,38.4598 32.3113,34.3112 32.3098,34.0075 31.7179,33.965 "/>
   <path class="fil1" d="M52.4743 35.7618c-0.1992,-0.4322 0.1333,-0.493 -0.5797,-0.4407l-0.0153 3.4668 0.5872 -0.0003c0.0812,-2.3568 -0.3456,-3.0222 1.1245,-2.8701l0.1702 -0.4921c-0.616,-0.3137 -0.9575,-0.2402 -1.2869,0.3364z"/>
   <path class="fil2" d="M76.5308 17.4229l-0.2604 -0.0644c-0.2455,0.6735 -0.2705,0.9841 0.1025,1.6212 0.2005,0.3427 0.6324,0.868 1.0015,0.9908 0.458,-0.5157 0.4224,-2.1512 -0.123,-2.6889l-0.1927 0.0687c-0.1948,0.8832 0.4532,0.7275 0.1546,1.2077 -0.3213,-0.1309 -0.1439,-0.1209 -0.3443,-0.3955 -0.2562,0.3384 0.0906,0.331 -0.3328,0.4968 -0.3015,-0.5035 0.1376,-0.0024 -0.0054,-1.2364z"/>
   <path class="fil2" d="M21.0709 17.4695c-0.1677,0.6351 -0.2105,0.94 0.176,1.5222 0.2649,0.3993 0.7374,0.9249 1.1942,0.9339 0.274,-0.7713 0.2419,-2.0909 -0.439,-2.6263l-0.186 0.1565c0.0849,1.1596 0.5614,0.569 0.2861,1.1235 -0.3289,-0.1263 -0.1324,-0.0636 -0.3592,-0.3453 -0.2468,0.3408 0.1007,0.3763 -0.3173,0.4844 -0.1096,-0.1702 -0.0102,-0.5109 -0.0803,-1.1944l-0.2745 -0.0545z"/>
   <path class="fil2" d="M46.3808 16.5141l-0.29 0.0351c-0.082,0.2418 -0.1531,0.3488 -0.1816,0.5923 -0.0416,0.3563 0.1478,0.329 -0.1849,0.5622 -0.2164,-0.2523 -0.1056,-0.2007 -0.1016,-0.5668 -0.3839,0.1165 -0.045,0.1781 -0.5079,0.2545 0.0279,-0.5644 0.8154,-0.5745 0.4136,-1.2735 -0.758,0.5033 -1.1247,1.5506 -0.9935,2.4381 0.5088,0.0851 1.0021,-0.2522 1.3498,-0.5905 0.4422,-0.4302 0.5441,-0.8148 0.4961,-1.4514z"/>
   <path class="fil2" d="M81.2893 17.1354l-0.2342 0.0779c-0.0636,0.3416 -0.1608,0.5372 -0.0214,0.8368 0.1441,0.3095 0.3205,0.2865 0.0742,0.685 -0.5176,-0.0236 -0.2355,-0.2032 -0.4206,-0.6013 -0.4584,0.2052 -0.0199,0.527 -0.5874,0.5863 -0.3478,-0.4637 0.0364,-0.5044 0.235,-0.7673 0.0794,-0.1051 0.3141,-0.6175 0.0844,-0.9196 -0.7863,0.6185 -0.6585,2.5757 0.2759,2.7021 0.3521,-0.171 0.5385,-0.7276 0.6641,-1.0893 0.2161,-0.6223 0.1027,-0.92 -0.07,-1.5106z"/>
   <path class="fil2" d="M73.7715 16.645c-0.7056,-0.0534 -0.3435,0.7491 -0.6175,1.1713 -0.3079,-0.1289 -0.1936,0.0086 -0.204,-0.4519 -0.2868,0.1657 -0.151,0.1766 -0.413,0.022 0.1219,-0.3926 0.7747,-0.5416 0.5031,-1.0179 -0.8374,0.268 -0.9597,1.6704 -0.707,2.4242 0.7381,0.0486 1.5578,-1.2886 1.4384,-2.1477z"/>
   <path class="fil2" d="M83.8204 16.9524c-0.4604,0.6742 0.3135,2.3164 0.9094,2.3413 0.4268,-0.5161 0.5133,-2.0896 -0.1507,-2.5257l-0.1953 0.0979c0.1091,1.1473 0.3455,0.5472 0.3617,1.2001 -0.392,-0.0099 -0.1954,0.0174 -0.4153,-0.2775 -0.1575,0.3519 -0.0525,0.2517 -0.3311,0.2557 -0.1612,-0.3637 0.3715,-0.938 -0.1787,-1.0918z"/>
   <path class="fil2" d="M28.4478 16.3396c-0.3385,1.2918 0.7757,2.3183 1.1558,2.267 0.2341,-0.3911 0.2257,-1.0288 0.1663,-1.4756 -0.0757,-0.5705 -0.2639,-0.7408 -0.6494,-1.0884 -0.23,1.1691 0.4138,0.7393 0.3288,1.3992 -0.331,-0.0441 -0.1018,-0.0562 -0.2297,-0.086 -0.5065,-0.1184 0.044,0.1399 -0.4941,0.0754 -0.1729,-0.3933 0.34,-0.8081 -0.2777,-1.0916z"/>
   <path class="fil2" d="M18.5246 16.9925c-0.6652,0.0667 -0.2447,0.8723 -0.5129,1.2001 -0.3309,-0.0881 -0.0811,-0.105 -0.2829,-0.2376 -0.2033,-0.1336 -0.2,-0.025 -0.3192,-0.1099 -0.0339,-0.4472 0.7177,-0.4947 0.3785,-1.0586 -0.7749,0.4172 -0.8372,1.9225 -0.4331,2.4651 0.6944,-0.1162 1.5069,-1.617 1.1696,-2.2591z"/>
   <path class="fil2" d="M89.6041 16.1591l-0.2269 0.1087c-0.0047,0.2895 -0.0281,0.3908 0.031,0.6701 0.065,0.3076 0.1411,0.0723 0.0729,0.5075 -0.4735,-0.0502 -0.0172,-0.1744 -0.5182,-0.1924 -0.1517,-0.0055 0.0562,0.0549 -0.1985,0.0118 -0.0506,-0.4951 0.1019,-0.2152 0.203,-0.5901 0.1058,-0.3926 -0.0606,-0.3907 -0.0559,-0.7025 -0.3195,0.4257 -0.4713,0.8158 -0.3642,1.4057 0.0716,0.3942 0.2642,1.0746 0.6109,1.2534 0.5749,-0.2559 0.9576,-1.9793 0.4459,-2.4722z"/>
   <path class="fil2" d="M48.982 16.5992c-0.4279,0.617 -0.0353,2.1969 0.6355,2.4223 0.3227,-0.2338 0.4487,-0.8232 0.5042,-1.226 0.0857,-0.6221 -0.0202,-0.8675 -0.4184,-1.2848 -0.3606,0.6947 0.2361,0.6565 0.1978,1.1584 -0.3135,0.0787 -0.1818,0.0952 -0.4014,-0.1742 -0.0797,0.2759 0.0526,0.2367 -0.2246,0.4018 -0.3477,-0.2497 0.0359,0.0838 -0.0571,-1.2194l-0.236 -0.0781z"/>
   <polygon class="fil1" points="33.2291,38.7565 33.7906,38.8033 33.8137,35.3255 33.2773,35.3136 "/>
   <path class="fil2" d="M94.9868 16.6616c-0.2718,0.8657 0.4469,1.9952 1.1892,2.055 0.231,-0.7206 0.1676,-1.7549 -0.4199,-2.2602 -0.3929,0.5688 0.1455,0.6199 0.1591,1.0881 -0.3189,-0.0522 -0.1051,0.0449 -0.3354,-0.2476 -0.2118,0.3164 0.0551,0.2009 -0.2366,0.4237 -0.2812,-0.3781 0.2414,-0.9926 -0.3564,-1.059z"/>
   <path class="fil2" d="M34.459 14.9384c0.0729,0.9086 0.8853,1.7108 1.7658,1.5992 0.0143,-0.8197 -0.3663,-1.6416 -1.0883,-2.0287 -0.2331,0.781 0.4854,0.5437 0.4392,1.075l-0.4008 -0.2086c0.0218,0.3507 0.1846,0.3419 -0.1153,0.4595 -0.2124,-0.2949 -0.0588,-0.9549 -0.6006,-0.8964z"/>
   <path class="fil2" d="M52.9283 18.0267l-0.343 0.0152c-0.1701,-0.4594 0.1558,-0.3726 -0.1265,-0.7507l-0.1255 0.2555c-0.2409,0.1445 -0.1393,0.2042 -0.4839,0.1434 -0.0534,-0.4056 0.0741,-0.5113 0.4742,-0.5823 0.1066,-0.3815 0.368,-0.5575 0.1682,-0.9441 -0.7546,0.4425 -1.1239,1.7237 -0.8209,2.541 0.4901,0.1134 1.0748,-0.2541 1.2574,-0.678z"/>
   <path class="fil2" d="M70.0281 16.3274l-0.1406 0.5644c-0.287,0.0896 -0.0763,0.0921 -0.3649,-0.0382 0.0757,0.4844 0.4957,0.9944 1.0086,0.9697 0.4778,-0.6703 0.5628,-1.9248 -0.0106,-2.5834l-0.2116 0.0944c0.0344,0.518 -0.0645,0.5428 0.2583,0.912 0.2146,0.2453 0.2866,0.3068 0.0385,0.591 -0.6021,-0.1325 -0.1366,-0.6472 -0.5777,-0.5099z"/>
   <path class="fil2" d="M14.3553 17.6169c0.1793,0.4308 0.6095,0.9147 1.1085,0.8325 0.4849,-0.8789 0.2658,-1.9255 -0.2978,-2.6643 -0.6359,0.9654 0.7783,1.1069 0.2453,1.6737 -0.4753,-0.1081 -0.1667,-0.2216 -0.504,-0.5201 -0.2112,0.3046 -0.0488,0.3103 -0.1878,0.7166l-0.3642 -0.0384z"/>
   <path class="fil2" d="M24.8218 18.3666c0.0415,0.4872 0.3271,1.001 0.8399,1.056 0.5981,-0.5227 0.7809,-1.8578 0.3224,-2.5573 -0.3719,0.0647 -0.2861,0.6406 -0.1665,0.8601 0.1551,0.2846 0.3865,0.267 0.1356,0.7099 -0.4864,-0.0173 -0.2655,-0.3239 -0.4734,-0.6052 -0.2405,0.1557 -0.1631,0.3444 -0.3343,0.6415 -0.3143,-0.0234 -0.0378,0.0837 -0.3237,-0.105z"/>
   <path class="fil0" d="M48.6235 36.6711c0.4515,0.1237 1.4189,0.1064 1.8951,0.0169 -0.1175,-1.375 -1.7635,-1.2199 -1.8951,-0.0169z"/>
   <path class="fil2" d="M86.8579 16.3452c-0.6484,0.3251 -0.69,1.6926 -0.2495,2.2204 1.0432,0.1565 1.3083,-1.6578 1.0184,-2.3468 0.0072,0.4721 -0.3546,0.3586 -0.256,0.971 0.0507,0.3145 0.3117,0.7089 -0.2234,0.7461 -0.1884,-0.2636 -0.0915,-0.3355 -0.1115,-0.6701 -0.2824,0.3027 -0.0392,0.3712 -0.4265,0.5438 -0.6293,-0.634 0.6735,-0.7353 0.2485,-1.4644z"/>
   <path class="fil0" d="M54.6103 36.6984l1.8665 0.024c-0.0474,-1.3488 -1.7974,-1.3367 -1.8665,-0.024z"/>
   <path class="fil0" d="M77.3897 36.6984l1.8705 0.0239c-0.0442,-1.3172 -1.791,-1.3524 -1.8705,-0.0239z"/>
   <path class="fil2" d="M31.4155 15.5236c-0.6,0.4528 -0.5453,1.7502 -0.0176,2.2377 1.0275,-0.0551 1.0245,-1.5927 0.7978,-2.3167 -0.0847,0.3407 -0.3543,0.4602 -0.189,0.9201 0.1153,0.3209 0.3181,0.6227 -0.1646,0.7345 -0.1526,-0.197 -0.1399,-0.42 -0.1743,-0.6715 -0.2452,0.3131 -0.0047,0.3273 -0.3406,0.5566 -0.7141,-0.4845 0.561,-0.8007 0.0883,-1.4607z"/>
   <path class="fil2" d="M11.7184 15.7495l-0.205 0.0561c-0.3461,0.6564 0.1019,1.0455 -0.5039,1.077 -0.1153,-0.3062 -0.0024,-0.2562 -0.0001,-0.6079 -0.2593,0.2291 -0.1253,0.3612 -0.4717,0.3869 -0.2352,-0.7974 0.5591,-0.3125 0.5608,-1.2454 -0.63,0.2784 -0.9898,1.2828 -0.649,1.9286 0.8055,0.2142 1.2743,-0.9235 1.2689,-1.5953z"/>
   <path class="fil2" d="M92.2117 17.8123l-0.4573 0.0596 0.1068 -0.6756c-0.3501,0.2165 -0.0956,0.4114 -0.5722,0.4215 -0.2202,-0.9284 0.6508,-0.3845 0.6633,-1.4053 -0.704,0.3387 -1.099,1.3714 -0.7887,2.1164 0.4465,0.2872 0.9123,-0.1209 1.0481,-0.5166z"/>
   <polygon class="fil0" points="69.1067,26.6701 70.4221,26.7176 69.7982,25.3444 "/>
   <path class="fil2" d="M56.0272 17.9947c0.0738,0.4166 0.3099,0.7135 0.7564,0.619 0.4102,-0.4581 0.367,-1.7453 -0.2361,-1.9598 -0.1155,0.8368 0.7828,0.772 0.2479,1.3038 -0.2773,-0.1429 -0.1715,-0.2294 -0.3616,-0.5034l-0.0512 0.6356 -0.3554 -0.0952z"/>
   <path class="fil0" d="M71.7114 13.2328c0.3959,-0.1485 0.8656,-0.7665 0.5541,-1.2191 -0.5098,0.0215 -0.6025,0.7683 -0.5541,1.2191z"/>
   <path class="fil0" d="M16.1921 13.8145c0.4359,-0.1863 0.6662,-0.7219 0.5253,-1.2154 -0.5703,-0.0636 -0.5954,0.7746 -0.5253,1.2154z"/>
   <path class="fil2" d="M69.5226 16.8536c-0.0097,-0.347 -0.0764,-0.3317 0.1977,-0.4977 0.1682,-0.5332 0.095,-0.7343 -0.0314,-1.2305 -0.2964,0.4831 -0.543,1.2217 -0.1663,1.7282z"/>
   <path class="fil2" d="M24.8218 18.3666c0.0133,-0.6617 0.1831,-0.3412 0.3435,-0.7004 0.0877,-0.1963 0.1562,-0.7378 -0.0085,-0.8911 -0.3763,0.3077 -0.6614,1.2001 -0.335,1.5915z"/>
   <path class="fil2" d="M14.3219 17.4703c0.0475,-0.3314 0.1047,-0.3265 0.2702,-0.5862 -0.0229,-0.2801 0.0357,-0.7921 -0.2327,-0.8917 -0.2758,0.4528 -0.3627,1.0519 -0.0375,1.4779z"/>
   <path class="fil2" d="M52.9551 17.943c0.4299,-0.2956 0.4326,-0.9457 0.3111,-1.436 -0.2864,0.0679 -0.126,-0.1058 -0.2737,0.269 -0.0008,0.0019 -0.1198,0.3763 -0.1221,0.3891 -0.0736,0.419 0.1693,0.2262 0.0847,0.7779z"/>
   <path class="fil0" d="M23.8134 14.3868c0.2833,-0.3057 0.4081,-0.9878 -0.0118,-1.2553 -0.4351,0.2426 -0.201,0.9019 0.0118,1.2553z"/>
   <path class="fil0" d="M79.3396 14.4606c0.2922,-0.3181 0.4735,-0.9197 0.0634,-1.2222 -0.4642,0.181 -0.2671,0.9071 -0.0634,1.2222z"/>
   <polygon class="fil1" points="33.2308,34.6166 33.7901,34.6764 33.8116,33.9866 33.2337,33.9933 "/>
   <path class="fil2" d="M92.2117 17.8123c0.3206,-0.2483 0.4327,-0.7855 0.4252,-1.1992l-0.2238 0.0345c-0.3285,0.6619 -0.1624,0.4417 -0.2014,1.1647z"/>
   <path class="fil2" d="M56.0272 17.9947c0.0239,-0.3503 0.2516,-0.8303 0.0069,-1.0407 -0.0686,-0.1719 0.0597,-0.1201 -0.1726,-0.1381 -0.0577,0.4191 -0.0812,0.8599 0.1657,1.1788z"/>
   <path class="fil2" d="M52.5808 17.1405c0.2183,-0.1232 0.1462,-0.0316 0.2367,-0.3792 0.0507,-0.1951 0.0747,-0.221 0.0165,-0.3701 -0.1332,0.1635 -0.3188,0.546 -0.2532,0.7493z"/>
   <path class="fil2" d="M45.7165 16.997c0.1627,-0.2001 0.2842,-0.3867 0.1726,-0.6147 -0.1684,0.1804 -0.2729,0.3674 -0.1726,0.6147z"/>
  </g>
 </g>
</svg>
