<?xml version="1.0" encoding="UTF-8"?>
<!DOCTYPE svg PUBLIC "-//W3C//DTD SVG 1.1//EN" "http://www.w3.org/Graphics/SVG/1.1/DTD/svg11.dtd">
<!-- Creator: CorelDRAW 2019 (64-Bit) -->
<svg xmlns="http://www.w3.org/2000/svg" xml:space="preserve" width="215.9mm" height="279.4mm" version="1.1" style="shape-rendering:geometricPrecision; text-rendering:geometricPrecision; image-rendering:optimizeQuality; fill-rule:evenodd; clip-rule:evenodd"
viewBox="0 0 215.9 279.4"
 xmlns:xlink="http://www.w3.org/1999/xlink"
 xmlns:xodm="http://www.corel.com/coreldraw/odm/2003">
 <defs>
  <style type="text/css">
   <![CDATA[
    .fil4 {fill:#2C1814}
    .fil1 {fill:gray}
    .fil3 {fill:#FCFCFC}
    .fil2 {fill:#FE0000}
    .fil0 {fill:#8BC580}
   ]]>
  </style>
 </defs>
 <g id="Layer_x0020_1">
  <metadata id="CorelCorpID_0Corel-Layer"/>
  <rect class="fil0" x="41.9517" y="73.7017" width="131.9966" height="131.9966"/>
  <path class="fil1" d="M150.8614 116.6073c-1.7202,-16.9756 -14.0969,-31.8799 -30.5634,-36.4968 -11.3164,-3.1081 -24.9848,-1.5474 -35.0803,4.5067 -6.8873,4.1299 -12.3672,10.0836 -15.9208,17.2825 -6.0524,12.4238 -5.9377,26.5167 0.1067,38.914 8.7525,17.7869 25.3016,28.8241 31.7875,48.4168 0.2288,0.7013 0.4353,1.3976 0.6352,2.1077 0.8813,3.4204 2.3415,10.7754 7.4656,9.3219 3.3138,-0.9399 4.2454,-6.967 5.1823,-9.9046 3.7246,-11.6799 6.6856,-15.9786 14.4026,-25.4629 12.8501,-15.7924 23.9409,-26.5815 21.9846,-48.6853z"/>
  <g id="_1744948660160">
   <path class="fil2" d="M84.5264 105.543c11.3326,0.225 15.9083,-0.3428 26.614,3.8041 2.5372,0.9828 5.3753,2.6655 7.6707,3.0738 -1.4783,-2.5197 -3.0426,-2.5409 -3.9737,-5.04 2.243,0.9416 4.0566,3.0288 5.6869,4.7907 5.839,6.3064 8.4141,12.4189 10.3598,21.2942l3.5786 -1.0214c0.1389,-4.9497 -2.6718,-17.7563 -3.9806,-22.3874 -8.234,-29.2036 -43.2104,-19.6951 -45.9557,-4.514z"/>
   <path class="fil3" d="M78.1714 117.4951c34.2049,-0.6232 43.6199,15.2852 47.9775,16.4793 2.4923,-5.5205 3.6066,-6.7981 -2.4437,-16.033 -4.2609,-6.5071 -23.5509,-11.6088 -33.9519,-11.453 -6.5077,0.1003 -11.8001,1.09 -11.5819,11.0067z"/>
   <path class="fil4" d="M133.5908 133.8011c7.21,-2.0074 9.0859,8.8093 2.9179,10.4951 -7.8021,2.132 -10.2177,-8.4634 -2.9179,-10.4951zm-55.4194 -16.306c-0.2182,-9.9167 5.0742,-10.9064 11.5819,-11.0067 10.401,-0.1558 29.691,4.9459 33.9519,11.453 6.0503,9.2349 4.936,10.5125 2.4437,16.033 -4.3576,-1.1941 -13.7726,-17.1025 -47.9775,-16.4793zm6.355 -11.9521c2.7453,-15.1811 37.7217,-24.6896 45.9557,4.514 1.3088,4.6311 4.1195,17.4377 3.9806,22.3874l-3.5786 1.0214c-1.9457,-8.8753 -4.5208,-14.9878 -10.3598,-21.2942 -1.6303,-1.7619 -3.4439,-3.8491 -5.6869,-4.7907 0.9311,2.4991 2.4954,2.5203 3.9737,5.04 -2.2954,-0.4083 -5.1335,-2.091 -7.6707,-3.0738 -10.7057,-4.1469 -15.2814,-3.5791 -26.614,-3.8041zm-7.9436 11.5782l0.8376 1.4883c10.4913,-0.3665 18.653,0.478 27.6349,3.7312 6.6598,2.4125 15.995,7.961 18.8369,12.1285 0.8756,0 0.7092,-0.2493 0.7092,0.526l0.5266 0.5298c3.2084,-0.8582 1.7444,-2.9354 4.2224,-4.749 0.0448,1.9769 0.7478,2.6375 0.1801,4.365 -0.6575,2.0006 -1.4571,1.5226 -1.2701,4.5757 0.2038,3.2607 2.4087,5.4034 5.379,5.8147 7.6251,1.0632 10.0027,-8.4764 5.3198,-11.6991 -3.3261,-2.291 -2.5197,1.5717 -3.9531,-7.1303 -2.544,-15.3992 -4.562,-30.1926 -20.3594,-35.5717 -5.8564,-1.9974 -12.983,-1.3256 -18.3277,0.8102 -9.8955,3.9525 -12.2457,12.0868 -13.7103,13.7271 -2.1632,2.4337 -5.4756,4.4966 -6.0259,11.4536z"/>
   <path class="fil3" d="M133.5908 133.8011c-7.2998,2.0317 -4.8842,12.6271 2.9179,10.4951 6.168,-1.6858 4.2921,-12.5025 -2.9179,-10.4951z"/>
  </g>
 </g>
</svg>
