<?xml version="1.0" encoding="UTF-8"?>
<!DOCTYPE svg PUBLIC "-//W3C//DTD SVG 1.1//EN" "http://www.w3.org/Graphics/SVG/1.1/DTD/svg11.dtd">
<!-- Creator: CorelDRAW 2019 (64-Bit) -->
<svg xmlns="http://www.w3.org/2000/svg" xml:space="preserve" width="25.4mm" height="25.4mm" version="1.1" style="shape-rendering:geometricPrecision; text-rendering:geometricPrecision; image-rendering:optimizeQuality; fill-rule:evenodd; clip-rule:evenodd"
viewBox="0 0 25.4 25.4"
 xmlns:xlink="http://www.w3.org/1999/xlink"
 xmlns:xodm="http://www.corel.com/coreldraw/odm/2003">
 <defs>
  <style type="text/css">
   <![CDATA[
    .fil2 {fill:#2C1814}
    .fil1 {fill:#FCFCFC}
    .fil0 {fill:#FE0000}
   ]]>
  </style>
 </defs>
 <g id="Layer_x0020_1">
  <metadata id="CorelCorpID_0Corel-Layer"/>
  <g id="_1745010444368">
   <path class="fil0" d="M4.1556 8.4244c3.9612,0.0787 5.5605,-0.1198 9.3026,1.3297 0.8868,0.3436 1.8788,0.9317 2.6811,1.0744 -0.5167,-0.8807 -1.0635,-0.8881 -1.3889,-1.7616 0.784,0.3291 1.4179,1.0586 1.9878,1.6745 2.0409,2.2043 2.941,4.3408 3.6211,7.4431l1.2508 -0.3571c0.0486,-1.73 -0.9339,-6.2064 -1.3913,-7.8252 -2.8781,-10.2076 -15.1036,-6.8841 -16.0632,-1.5778z"/>
   <path class="fil1" d="M1.9343 12.6022c11.9558,-0.2179 15.2467,5.3427 16.7699,5.76 0.8711,-1.9296 1.2606,-2.3761 -0.8542,-5.6041 -1.4894,-2.2744 -8.2319,-4.0577 -11.8674,-4.0032 -2.2747,0.0351 -4.1245,0.381 -4.0483,3.8473z"/>
   <path class="fil2" d="M21.3054 18.3017c2.5201,-0.7017 3.1758,3.0791 1.0199,3.6684 -2.7271,0.7452 -3.5715,-2.9583 -1.0199,-3.6684zm-19.3711 -5.6995c-0.0762,-3.4663 1.7736,-3.8122 4.0483,-3.8473 3.6355,-0.0545 10.378,1.7288 11.8674,4.0032 2.1148,3.228 1.7253,3.6745 0.8542,5.6041 -1.5232,-0.4173 -4.8141,-5.9779 -16.7699,-5.76zm2.2213 -4.1778c0.9596,-5.3063 13.1851,-8.6298 16.0632,1.5778 0.4574,1.6188 1.4399,6.0952 1.3913,7.8252l-1.2508 0.3571c-0.6801,-3.1023 -1.5802,-5.2388 -3.6211,-7.4431 -0.5699,-0.6159 -1.2038,-1.3454 -1.9878,-1.6745 0.3254,0.8735 0.8722,0.8809 1.3889,1.7616 -0.8023,-0.1427 -1.7943,-0.7308 -2.6811,-1.0744 -3.7421,-1.4495 -5.3414,-1.251 -9.3026,-1.3297zm-2.7766 4.047l0.2928 0.5202c3.6671,-0.128 6.5199,0.1671 9.6594,1.3042 2.3278,0.8433 5.5908,2.7827 6.5842,4.2394 0.306,0 0.2479,-0.0871 0.2479,0.1839l0.184 0.1851c1.1215,-0.2999 0.6098,-1.026 1.4759,-1.6599 0.0157,0.691 0.2614,0.9219 0.0629,1.5257 -0.2298,0.6993 -0.5093,0.5322 -0.4439,1.5994 0.0712,1.1397 0.8419,1.8887 1.8802,2.0324 2.6652,0.3717 3.4963,-2.9628 1.8594,-4.0892 -1.1626,-0.8008 -0.8807,0.5494 -1.3817,-2.4923 -0.8892,-5.3826 -1.5946,-10.5534 -7.1164,-12.4336 -2.047,-0.6982 -4.538,-0.4633 -6.4062,0.2832 -3.4588,1.3815 -4.2803,4.2248 -4.7922,4.7981 -0.7561,0.8507 -1.9139,1.5717 -2.1063,4.0034z"/>
   <path class="fil1" d="M21.3054 18.3017c-2.5516,0.7101 -1.7072,4.4136 1.0199,3.6684 2.1559,-0.5893 1.5002,-4.3701 -1.0199,-3.6684z"/>
  </g>
 </g>
</svg>
